<?xml version="1.0" encoding="UTF-8"?>
<svg id="svg2" xmlns="http://www.w3.org/2000/svg" version="1.1" xmlns:cc="http://creativecommons.org/ns#" xmlns:dc="http://purl.org/dc/elements/1.1/" xmlns:rdf="http://www.w3.org/1999/02/22-rdf-syntax-ns#" xmlns:svg="http://www.w3.org/2000/svg" viewBox="0 0 877.33 250.67">
  <!-- Generator: Adobe Illustrator 30.0.0, SVG Export Plug-In . SVG Version: 2.1.1 Build 123)  -->
  <defs>
    <style>
      .st0 {
        fill: #00773d;
        fill-rule: evenodd;
      }

      .st1 {
        fill: none;
        stroke: #00773d;
        stroke-miterlimit: 10;
        stroke-width: 1.33px;
      }
    </style>
  </defs>
  <g id="g10">
    <g id="g12">
      <path id="path14" class="st0" d="M736.4,77.45c2.97,1.25,5.52,6.02,7.02,10.02.79,2.1.44,6.46.35,8.2-2.66,4-8,5.4-12.13,7.75,1.07-8.41,4.47-21.08,4.76-25.96M727.42,44.3c.75.69,1.13,17.25-.62,36.09-.34,4.22-2.7,16.99-4.79,26.58-5.15,2.65-14.4,5.24-16.34,5.24-1.98-.92-5.15-1.4-7.14-2.31-1.39.59-.97,1.23-.8,3.4,4.31,4.89,10.22,7.66,14.93,8.99.46-.64.27-1.55.95-1.83,2-.84,5.23-2.5,7.6-2.85-.87,0-2.1,29.59-15.46,40.21-6.65,4.29-12.18,5.49-16.08,5.78-.33.23.59,1.07.43,1.37-.75,1.73,11.1,1.04,17.83-.83,1.61-.96,8.47-.48,13.05-11.05,1.65-3.81,2.8-10.17,5.26-20.56,1.99-7.69,5.66,1.67,8.64,6.17,3.82,6.11,6.61,13.7,10.44,19.81,3.82,3.37,8.21,5.58,17.13,7.38,11.04-9.18,15.11-15.83,15.58-21.08-3.94-1.89-8.17,3.72-17.39,3.88-8.65-.21-23.17-19.27-30.18-19.52-4.25-.98-1.49-6.12-1.48-7.38,0,0,.12-6.59,1.29-6.71.42-.03.69-1.18,1.02-1.35,3.66-5.34,20.45-11.96,20.45-12.55,1.87-3.91.29-11.3-2.64-15.81-3.74-.4-8.34-7.24-11.97-9.73.66-1.8.47-5.32,1.55-9.38.49-1.85,1.03-3,1.56-4.83.52-1.82,4.11-3.23,3.7-10.37-4.13-1.83-8.25-4.62-12.39-6.29-1.37-.56-2.75.15-4.13-.46"/>
      <path id="path16" class="st0" d="M801.05,100.31c-.85.95-15.17,15.03-9.72,25.85,1.61,4.43,5.09,4.16,7.56,4.57,1.12.19,2.03,1.1,2.46,1.63,0,0,.91-3.11-.05-5.23-1.04-2.31-.73-3.99-.63-6.21,2.02-4.15,4.19-7.44,5.06-9.16.67-1.33.28-2.1.28-2.1l-4.42,3.91.05-5.13,2.39-4.51,1.18-3.55-4.15-.07h-.01ZM822.35,57.45c2.37-1.34,6.46-1.55,12.25-.62,2.05-2.28,3.74-5.28,4.65-9.83-1.6-2.57-1-5.78-.33-8.35,3.37,2.84,6.59,5.25,12.22,11.01-3.15,3.52-6.3,7.69-9.44,11.21,1.68,1.89,3.6,4.74,4.6,6.94,4.33,2.21,5.31,5.56,3.99,8.33-1.38,1.07-4.67.86-6.05,1.93,1.07,1.68,2.99,3.36,4.06,5.05,5.27-11.98,13.4-17.77,15.78-26.32-3.82,1.07-6.79,4.7-10.61,5.77-3.12-.52,2.9-7.18,12.91-12.29,6.36,4.3,8.3,8.7,3.27,14.71-3.8,1.46-8.67,9.17-13.75,15.93,3.57-1.92,7.85-2.33,11.36-2.16-1.03-2.02,3.85-2.21,9.67-1.89,0,2.91-.43,6.88-.43,9.78-2.22,1.15-4.65,1.84-6.85,2.94-11.9,5.95-23.38,11.81-35.37,18.01-.3,1.22.03,1.8-.27,3.03,2.43-2.56,3.61-4.49,14.09-7.61,1.68,2.75,2.94,2.72,4.61,8.25-2.59,5.05-3.7,10.09-6.3,15.14,4.23-1.57,9.43-1.97,15.38-1.84,2.41.03,4.45,2.04,5.72,2.63.4,3.46-.4,4.22-1.14,6.54-.88.61-.45,3.17-5.58.43-1.82-.97-4.29.44-4.84.55-2.45.77-3.19,1.32-5.63,2.08,1.01-2.91,2.09-4.39,3.67-4.44-2.59.46-5.19.92-7.8,1.37,1.15,8.41,3.6,16.82,2.72,25.23.2,4-.91,7.37-3.55,11.37-2.36,1.55-2.8,1.48-5.56.79-1.59-.4-2.27-2.14-8.36-1.78-6.16-1.16-12.67-7.17-19.95-13.41l-.3-3.97c-.12-1.63,15.5,14.31,23.96,11.68,8.47,0,7.85-2.44,7.52-9.48.31-10.45-2.75-18.46-2.75-18.46-.46-.51-11.79,3.22-15.72,8.75-1.44,2.03-3.44,3.47-4.85,3.14-3.44-.8-8.79-6.85-8.41-7.94l1.33-3.74s.85.85,5.48,1.04c6.96-.46,22.11-8.68,22.19-8.68,1.53-10.35,4.12-12.37,2.23-15.04-4.58,2.6-5.75,6.05-10.34,8.65-6.42-.53-9.2-3.54-10.91-6.48.3-7.89,10.08-13.15,17.35-14.28,10.24-5.04,16-7.73,26.24-12.78,0,0,6.6-4.89,3.18-5.41-12.39-2.85-42.22,17.17-42.22,16.05-2.11-1.86-2.99-1.67-6.9-3.32-2.46.69-2.12-3.13-1.75-3.56,3.67.31,7.12.61,10.79.92,5.81-2.91,11.19-4.53,17.01-7.43-1.99-1.68-3.34-5.07-5.32-6.76-.18,2.82-.86,6.91-5.05,6.29-.92-.3-1.83-.61-2.75-.91-3.52,1.68-7.03,3.36-10.55,5.05,2.75-3.21,6.35-6.42,9.1-9.64.16-1.99-3.74-4.4-3.59-6.39-.61-1.99,4.97-.34,7.79,1.09,1.07-.92,2.14-2.05,3.21-2.96l-1.37-4.13-4.13,3.21c-4.73-.27-11.28-.23-8.71-1.71l7.73-6.48c-2.59-.24-5.19-.47-7.78-.7l-.86-4.1h.01ZM808.03,61.56c1.21,0,5.79.52,6.13,1.98,5.52,2.05,10.2,15.04,8.66,16.07-2.45,0-5.18-.88-7.63-.88,0,0,.12-3.35-.9-5.65,0-1.44-3.61-3.93-5.66-7.13-1.22-1.92-.6-4.4-.6-4.4M800.8,72.28c2.38,5.99,3.49,11.03,2.75,14.68,2.52,2.53,7.76,5.3,8.11,9.64.11,1.38,2.31,1.37,3.15,2.21.54-1.99-.51-5.92.32-8.11s2.35-4.4,2.16-6.46c-1.99-.76-5.15-.06-7.14-.82-1.65-3.97-1.61-8.79-9.35-11.14"/>
      <path id="path18" class="st0" d="M322.13,32.47c14.87,8.23,11.98,13.22,12.73,20.62-.94,1.94-3.32,2.49-3.21,5.05l8.71-.46,9.17-11.92s4.13-4.58,7.34-4.58,3.21,10.09,3.21,10.09c0,0,2.66,3.83-3.72,6.64-10.79,1.34-12.4,5.91-12.66,8.51,5.4-.76,8.42,4.2,9.8,6.2l3.08-2.14c1.79-2.89,3.86.4,5.36.31.87,5.65-.77,6.25-2.37,7.25l-3.69,2.28-4.54,6.43c-5.41,5.54-1.86,3.65-10.2,8.62-2.35-2.79,5.53-7.3,3.93-11.06-3.21-2.29-4.25-2.87-2.97-5.81.51-.77,2.04.37,2.1-.36.43-5.07-4.75-7.6-4.75-7.6l-2.48,1.59-1.51,2.12,3.81,3.65c-.25,3.69,1.23,2.93-.79,4.61l.05,17.84,11.93-3.21s8.96-3.83,11.02-7.51c2.35-2.19,16.23,4.65,10.99,8.43-20.03,5.99-32.01,16.71-28.43,17.43l9.78,8.91s3.2,6.85-2.33,7.73c-11.72-1.47-13.41,1.45-13.41,1.45,0,2.05.77,28.76-.55,34.97-2.05,10.77-3.32,9.47-6.34,8.85-2.8-10.04-3.6-40.13-4.31-40.13-3.97-.3-7.23,1.32-10.9,3.16-3.67,1.83-.36,4.42-7.7,3.96-7.34-.46-10.75-9.76-5.5-11.47,5.25-1.7,24.48-15.75,23.79-15.75s.28-4.87-.71-6.72c-4.22-.82-23.41,8.92-23.41,11.21-3.82,4.5-6.68,2.36-6.68,2.36,0,0-7.08-7.15-8.91-9.44.81-.82-1.72-4.09,5.4-2.13,13.3,1.38,33.74-8.42,33.74-8.42l-.17-7.16s-2.62.6-3.08,2.9-.33,3.84-.33,3.84l-10.02-.98s.28-1.46-.18-4.21c-1.19-1.43-3.49-2.64-3.49-2.64l3.38-3.45s.27-6.38.27-10.05c2.8-1.91,5.98,1.57,5.98,1.57,1.79-.6,6.53-1.82,6.58-1.21,1.32-3.86-1.74-10.97-.16-11.63,2.75-1.83,8.25.46,8.25.46l4.39-6.86-9.93.62-8.23,4.13s-5.49-2.02-7.32-7.98c-1.83-5.96,2.81,0,9.93-1.67.8-3.43,1.17-14.11-1.42-19.5-1.17-8.19,1.79-6.23,1.69-7.71M338.19,106.22c3.58-.73,10.26-2.11,8.68-1.03l-8.82,6.03c-.32-1.83-.3-3.67.15-5M337.89,120.49c-.43.91.11,4.17-.15,5.29,1.03-.33,2.5-1.54,2.65-2.65.14-1.04-1.67-1.38-2.5-2.65M309.95,134.46s.5.41,3.2-.02c2.68-.42,6.03-1.57,13.42-4.09-.14-2.35.15-8.42-.88-7.06l-3.58,1.87c-5.37,3.15-8.84,6.01-12.16,9.3"/>
      <path id="path20" class="st0" d="M618.27,99.23c5.28,3.49,8.64,4.63,11.17,6.17.95,1.93,1.45,3.66-1.03,5.98-.46.43-3.19,2.16-2.35,2.66,2.57-.56,2.94-.82,4.77-.06.18,1.38.9,5.39-1.17,6.77-6.82,4.13-8.2,8.06-7.72,8.42,3.97-2.85,7.95-5.6,11.34-8.82.15-9.17.3-13.65.46-22.82,1.92-3.47,4.69-8.15,7.01-6.54,1.12,1.05,2.78,1.92,3.79,3.84.93,3.16,1.29,7.21,3.02,13.3,1.66.97,1.17,4.03,1.76,6.11-3.36,3.51-6.87,6.15-10.23,9.67-.35,3.51-.15,11.15.29,14.66,0,0,14.71-8.37,21.59-1.03,7.61,7.34,2.98,12.94,2.98,12.94-3.53,1.95-8.23,2.58-12.2,2.33.78-3.86,2.63-5.95.9-12.73.94-1.69-7.25-2.19-13.1,3.83.04,5.73,1.18,12.88,1.8,18.81.86,7.89,1.59,5.56,2.16,6.42.33,1.2.98,3.18-.23,3.66-.95.37-7.76-.02-8.1-.36-3.4-2.15-3.51-2.33-5.85-5.19-.26-1.82-1.08-2.61.27-4.63.35-3.58.26-8.22.08-12.45-6.49,4.8-11.08,9.25-11.58,11.96-1.44,3.39-5.5,5.44-5.13,5.63-1.96.98-9.33-5.96-11.05-6.39-1.93-1.9-1.58-4.42-2.49-7.03,7.81,1.81,12.35,2.95,14.68,1.63,5.65-5.17,10.71-8.57,16.07-12.1,0-4.74.44-9.04.44-13.78-3.39,2.12-3.99,5.42-7.09,7.53-1.03.7-5.73.68-6.91.21-2.67-3.87-3.67-3.94-4.77-8.58,1.53-1.43,4.82-.72,6.35-.97,1.99-1.98,3.97-4.71,4.78-6.7-1.68-1.83-5.12,4.26-5.04-6.23,2.78-1.58,3.86-2.58,4.29-4.93-2.06-.63-4.96-3.27-5.85-6.09-.69-2.19.65-4.7,1.89-5.09M627.44,37.91s7.87,2.53,6.25,9.17c-5.87,4.02-3.86,23.43-4.52,23.09.7,1.96.24,8.18.95,10.15,3.17-2.47,6.26-5.48,8.35-9.51,7.17-6.03,14.44-12.04,16.97-18.08.39-1.07,1.37-4.78-2.5-3.94-2.4,3.48-6.64,6.81-8.77,10.33-2.49,4.11-2.21,5.86-8.02,5.84-2.86-1.8-4.07-5.99-5.37-9.74,3.52,0,7.04.29,10.55.29,4.74-3.67,8.59-5.57,13.63-10.27,3.06.3,6.11.61,9.17.92.72,4.28.85,7.68.55,11.96-6.57,4.58-12.85,8.88-19.43,13.47-4.28,2.9-8.12,7.42-11.08,10.62,7.84-2.1,14.27-5.08,21.72-9.01,1.43-.75.24-1.62,1.74-2.73,2.45-.31,3.13-.61,5.58-.92,5.13,2.93,5.17,4.09,5.5,7.43-1.16,2.77-2.11,5.14-3.62,5.26-7.91.62-13.89,2.07-16.32,4.74-1.81-1.66,1.07-2.72-.15-3.63-8.96,1.75-18.3,6.01-27.32,9.91-8.48,3.09-16.3,5.99-20.64,7.99-2.36,1.09-3.25,2.47-4.43,2.39-9.3-1.88-12.04-5.92-10.57-6.38,2.75,0,6.98.45,9.73.45,18.39-4.32,20.73-7.6,29.28-11.18-.76-1.22-1.53-2.45-2.29-3.67.45-.77.92-1.53,1.38-2.29-.46-2.45.69-7.24.23-9.69-.21,0-1.37.29-1.94.81-.77.68.44,3.72-.34,4.45-2.82,2.66-6.37,3.94-9.43-3.37l-1.85-4.35c-1.42-3.6.96-4.22,3.51-3.61l2.44,2.17c-1.04-.84,7.91.99,7.38-2.92-.47-19.25,4.48-29.41,3.66-26.14M639.5,96.23c-.54.54-.78,1.22-1.32,1.77-.29,6.02-.2,12.03.3,18.05.78.1.97.2,1.76.3,1.42-.64,3.13-2.75,4.55-3.96,0-2.89-.88-5.63-.88-8.52-.71-3.11-1.2-5.7-3.08-7.63-.34.05-.98-.05-1.32,0"/>
      <path id="path22" class="st0" d="M504.99,142.04s-12.09,15.93-12.16,21.37c2.57,9.27,12.16-21.37,12.16-21.37M508.32,62c4.68,1.7,4.23,6.63,8.18,7.01,2.67-1.76,6.32-3.2,7.39-4.47-.49-3.93,1.37-6.83-1.46-12.66,1.7-5.58,4.26-10.67,8.71-14.68,2.23,1.29,5.76,4.06,8.97,11.7-.15,4.22-1.96,5.56-2.66,7.75-.32.99-.24,2.02-.22,3.2,3.82-3.13,7.05-4.38,10.88-5.23,5.29.64,6.72,2.36,8.55,5.74-7.51,9.78-15.31,18.48-21.65,27.46-2.82.75-5.29-.56-7.71-2.16-1.83,1.94-2.24,4.23-.93,6.57,1.07-.92,1.41-2.13,2.47-3.05,1.37-.7,3.63,1.15,5.01,2.41-4.78,7.55-7.98,15.3-10.35,22.51l8.09-7.32c2.48-1.92,4.23-2.23,6.71-4.15,4.36,1.89,6.38,4.94,8.09,8.44-.75,4.08-6.45,10.07-8.7,13.82-1.54,1.17-5.34,3.1-8.4,5.59-1.09-2.41-2.38-3.68-5.04-2.94-.58,11.69-2.07,17.94-.3,26.6,1.64-2.62,4.22-4.41,5.47-7.03-1.22-.77-2.59-1.38-3.82-2.15.49-1.83-.13-4.52-.43-6.36,9.49-.05,12.79-1.6,16.39-6.37,1.98.83,6.15,4.45,7.1,6.9-3.06,2.59-7.15,5.04-11.67,5.43,1.95,3.19,9.63,4.47,14.77,5.83.46,7.13-10.87,9.59-11.19,8.47-.8-3.27-2.9-6.78-7.62-10.97-2.46,2.47-4.8,6.52-6.88,11.74-.65,7.78-3.11,8.58-5.96,9.63-3.4-1.27-5.23-3.72-5.5-7.34.2-2.46-.98-5.98.24-6.72.86-.53,1.71-5.23,1.81-8.05.29-9.18,1.87-17.31,3.63-24.83,3.01-.74,6.74-.8,9.74.43,3.05-3.41,7.26-7.38,7.91-13.58-6.08,1.99-14.07,8.8-20.58,14.7-3.64,10.15-7.89,16.91-13.01,29.03-3.01,7.37-6.77,14.41-9.47,17.75,0,0-3.19,3.72-5.81,1.89-5.27-12.55,21.41-45.46,21.41-45.46l8.71-23.39c-4.12,1.18-5.9-1.14-4.57-5.25,1.45-4.25,9.19-27.2,7.91-26.29-1.83.3-3.08,2.22-4.92,2.53-.34,6.57-.83,7.42-6.46,7.83-.3-1.38.27-1.58-.04-2.95-1.93-1.08-2.92-1.73-5.68-1.56-.57-2.12-.75-4.04,1.83-4.59.55-3.51-1.81-8.35,1.03-11.43M494.3,76.54c1.27,9.35,5.82,8.27,4.11,16.15,2.69,2.69,6.74,7.17,7.06,8.07.33.91,8.74-1.03,4.44-11.3-4.29-10.27-8.62-12.78-8.62-12.78l-6.99-.14ZM541.84,64.86s-7.27,2.13-9.41,3.84c-.42,4.28-2.13,9.83-1.71,9.83,6.44-4.56,8.32-9.11,11.11-13.67"/>
      <path id="path24" class="st0" d="M431.45,98.09c-.33,4.07-.32,7.85-.26,11.92,2.99-2.59,5.78-6.42,6.81-10.19l4.61.43c7.8-10.03,16.47-14.49,14.2-15.68-9.66,3.06-17.67,7.71-25.37,13.51M422.72,35.15c2.23-2.58,16.07,10.49,15.28,15.74-3.01,9.23-5.65,8.63-5.93,36.94,6.39-3.53,21.73-8.82,29.15-10.58l4.79-.89c1.81.99,3.18,3.03,4.7,5.34l-.32,3.53c-7.29,4.85-11.65,8.1-21.68,17.93l-.59,5.65c-2.46,1.12-16.38,7.9-16.68,11.15.34,13.46.84,25.33.55,32.15,2.43,3.29-1.18,20.08-5.7,22.7-2.05,3.09-4.7-6.07-7.53-18.66l1.83-3.21c.12-15.3-2.31-28.25-1.99-44.14-2.79-.17-6.61,4.76-7.61,7.19-.81,1.98-2.6,3.18-5.37,3.6-4.05-.61-7.51-5.48-9.35-7.56-3.42-3.52-4.73-7.37-4.39-9.96.35-2.58,6.41,4.88,11.43,4.42.04-.52,3.58-.87,14.97-10.44.34-38.53,1.53-57.41,4.44-60.92"/>
      <path id="path26" class="st0" d="M871.66,200.22l-5.74,10.64.15,6.45h-5.33l-.13-6.58-7.59-10.51h5.54l4.1,6.32,2.94-6.32h6.06ZM850.89,200.22l.11,4.2h-5.55l.22,12.89h-5.31l-.23-12.89h-5.31l-.09-4.2h16.16ZM830.64,200.22l.34,17.09h-5.34l-.34-17.09h5.35,0ZM820.63,204.96l-4.88.27c-.46-1.48-1.46-2.22-3.01-2.22-.63,0-1.08.13-1.36.4-.27.27-.37.59-.29.96.06.27.27.53.59.77.33.25,1.05.56,2.16.94,1.41.5,2.56.97,3.47,1.41s1.71,1.02,2.39,1.72c.68.71,1.15,1.59,1.39,2.65.23.99.17,1.92-.18,2.78-.35.85-.99,1.57-1.9,2.13-.92.55-2.34.83-4.27.83-2.71,0-4.76-.52-6.14-1.56-1.37-1.04-2.26-2.37-2.64-4.01l-.09-.4,4.89-.34c.25,1.07.66,1.82,1.23,2.25.58.44,1.28.66,2.1.66s1.44-.18,1.79-.55c.36-.37.47-.78.36-1.25-.08-.35-.29-.67-.65-.97-.35-.3-1.11-.64-2.3-1.03-2.72-.91-4.5-1.73-5.34-2.49-.84-.77-1.4-1.68-1.65-2.76-.22-.98-.16-1.87.2-2.68s1.01-1.43,1.95-1.88c.94-.45,2.14-.67,3.6-.67,4.63,0,7.48,1.68,8.56,5.04M791.48,207.17h1c1.68,0,2.75-.08,3.2-.23.46-.16.76-.42.92-.79.15-.36.19-.72.11-1.06-.1-.44-.32-.78-.67-1.03s-1-.37-1.96-.37h-2.68l.08,3.48h0ZM786.03,200.22h9.72c1.68,0,3.01.44,4,1.32.98.88,1.61,1.94,1.9,3.17.32,1.34.18,2.51-.41,3.51-.59.99-1.76,1.64-3.5,1.92,1.27.86,3.11,3.27,5.52,7.18h-5.58c-.76-1.23-1.62-2.58-2.6-4.05-.98-1.46-1.66-2.31-2.02-2.54-.37-.24-.79-.35-1.24-.35h-.28l.17,6.95h-5.3l-.37-17.09v-.02ZM781.16,200.22l.08,3.67h-8.68l.06,2.72h8.36l.04,3.46h-8.35l.06,3.35h9.41l.08,3.89h-14.68l-.35-17.09h13.97ZM763.9,200.22l-5.6,17.09h-5.71l-7.28-17.09h5.24l4.37,12.17h.05l3.2-12.17h5.73ZM741.78,200.22l.33,17.09h-5.34l-.34-17.09h5.35ZM731.01,200.22l.33,17.09h-4.94l-6.56-9.93h-.04l.2,9.93h-4.96l-.33-17.09h4.94l6.54,9.96h.05l-.19-9.96h4.96ZM709.56,200.22l.2,10.31c.04,2.41-.47,4.19-1.54,5.34-1.07,1.16-2.92,1.73-5.55,1.73-1.46,0-2.66-.14-3.6-.43-.93-.28-1.78-.72-2.51-1.29-.73-.57-1.32-1.23-1.77-1.96-.44-.73-.77-1.52-.96-2.36-.24-1.07-.38-2.08-.4-3.06l-.18-8.28h5.31l.2,9.62c.02.45.08.93.2,1.43.31,1.35,1.28,2.03,2.87,2.03.85,0,1.51-.26,1.98-.77.48-.51.69-1.51.66-2.98l-.23-9.33h5.32ZM683.38,213.14l.1,4.17h-13.78l-.37-17.09h5.32l.26,12.92h8.47ZM658.92,210.89l-1.97-6.23h-.05l-1.49,6.23h3.51,0ZM666.18,217.31h-5.18l-.89-2.79h-5.57l-.68,2.79h-5.69l5.66-17.09h5.63l6.72,17.09h0ZM634.46,207.17h1.01c1.67,0,2.74-.08,3.2-.23.46-.16.76-.42.91-.79.16-.36.2-.72.12-1.06-.11-.44-.33-.78-.68-1.03-.34-.25-1-.37-1.96-.37h-2.68l.08,3.48h0ZM629.01,200.22h9.72c1.68,0,3.01.44,3.99,1.32s1.61,1.94,1.91,3.17c.31,1.34.17,2.51-.42,3.51-.59.99-1.75,1.64-3.5,1.92,1.27.86,3.12,3.27,5.53,7.18h-5.58c-.75-1.23-1.62-2.58-2.59-4.05-.98-1.46-1.66-2.31-2.03-2.54-.36-.24-.78-.35-1.23-.35h-.28l.16,6.95h-5.3l-.37-17.09v-.02ZM623.89,200.22l.19,10.31c.05,2.41-.46,4.19-1.53,5.34-1.07,1.16-2.92,1.73-5.55,1.73-1.47,0-2.66-.14-3.61-.43-.94-.28-1.78-.72-2.51-1.29-.73-.57-1.32-1.23-1.77-1.96-.44-.73-.77-1.52-.96-2.36-.25-1.07-.38-2.08-.4-3.06l-.18-8.28h5.3l.2,9.62c.01.45.08.93.19,1.43.32,1.35,1.27,2.03,2.88,2.03.85,0,1.51-.26,1.98-.77.47-.51.69-1.51.66-2.98l-.23-9.33h5.34ZM603.69,200.22h-16.16l.1,4.2h5.3l.25,12.89h5.3l-.23-12.89h5.55l-.11-4.2ZM587.48,213.14l.1,4.17h-13.78l-.37-17.09h5.33l.25,12.92h8.47ZM568.31,200.22l.19,10.31c.05,2.41-.46,4.19-1.53,5.34-1.07,1.16-2.92,1.73-5.55,1.73-1.46,0-2.66-.14-3.61-.43-.93-.28-1.78-.72-2.51-1.29-.73-.57-1.32-1.23-1.76-1.96-.44-.73-.77-1.52-.96-2.36-.25-1.07-.38-2.08-.4-3.06l-.18-8.28h5.3l.2,9.62c.01.45.08.93.2,1.43.31,1.35,1.27,2.03,2.88,2.03.85,0,1.51-.26,1.98-.77.48-.51.7-1.51.66-2.98l-.23-9.33h5.33,0ZM547.78,205.83l-4.72.55-.02-.09c-.19-.83-.59-1.45-1.18-1.85-.59-.4-1.18-.61-1.79-.61-.78,0-1.46.29-2.07.86-.6.57-.99,1.44-1.17,2.62-.17,1.18-.13,2.32.14,3.43.2.85.6,1.56,1.19,2.13s1.33.86,2.2.86c.81,0,1.43-.26,1.87-.77.43-.52.73-1.3.91-2.36l5.12.77c-.11,1.76-.75,3.24-1.94,4.45-1.19,1.21-2.96,1.81-5.33,1.81s-4.5-.66-6.1-1.97c-1.61-1.32-2.67-3.06-3.18-5.25-.39-1.67-.4-3.35-.02-5.04.38-1.69,1.19-3.01,2.45-3.97s2.93-1.45,5.01-1.45,3.98.54,5.47,1.63c1.5,1.08,2.56,2.51,3.17,4.28M526.53,200.22l.34,17.09h-5.35l-.34-17.09h5.35ZM506.21,207.17h1c1.68,0,2.75-.08,3.2-.23.46-.16.77-.42.92-.79.16-.36.2-.72.11-1.06-.1-.44-.33-.78-.67-1.03-.35-.25-1-.37-1.96-.37h-2.68l.08,3.48h0ZM500.75,200.22h9.72c1.68,0,3.01.44,3.99,1.32.98.88,1.62,1.94,1.91,3.17.31,1.34.18,2.51-.41,3.51-.59.99-1.76,1.64-3.5,1.92,1.27.86,3.11,3.27,5.52,7.18h-5.58c-.76-1.23-1.62-2.58-2.59-4.05-.98-1.46-1.65-2.31-2.03-2.54-.37-.24-.79-.35-1.23-.35h-.28l.17,6.95h-5.3l-.38-17.09v-.02ZM495.83,205.16l-5.06.57c-.79-1.35-1.91-2.03-3.36-2.03s-2.38.72-2.88,2.16c-.49,1.44-.56,2.98-.17,4.61.22.95.72,1.75,1.48,2.39.77.64,1.63.96,2.59.96h.05c1.09,0,1.98-.28,2.67-.84l-.05-1.83h-3.22l-.07-3.57h7.97l.16,8.04c-2.35,1.32-4.83,1.98-7.44,1.98-2.35,0-4.37-.63-6.05-1.91s-2.79-3.07-3.33-5.38c-.45-1.93-.43-3.69.07-5.3.51-1.61,1.45-2.85,2.84-3.75,1.39-.89,3.12-1.33,5.19-1.33,4.04,0,6.91,1.75,8.6,5.23M470.52,210.89l-1.98-6.23h-.05l-1.48,6.23h3.51ZM477.77,217.31h-5.18l-.89-2.79h-5.57l-.67,2.79h-5.69l5.66-17.09h5.63l6.71,17.09h0ZM449.48,205.16l-5.07.57c-.79-1.35-1.91-2.03-3.36-2.03s-2.38.72-2.87,2.16-.55,2.98-.17,4.61c.22.95.72,1.75,1.48,2.39.77.64,1.63.96,2.58.96h.05c1.08,0,1.98-.28,2.67-.84l-.05-1.83h-3.23l-.06-3.57h7.97l.16,8.04c-2.35,1.32-4.83,1.98-7.44,1.98-2.35,0-4.37-.63-6.05-1.91-1.67-1.28-2.79-3.07-3.32-5.38-.45-1.93-.42-3.69.07-5.3.51-1.61,1.45-2.85,2.84-3.75,1.39-.89,3.11-1.33,5.18-1.33,4.04,0,6.91,1.75,8.6,5.23M427.78,200.22l.33,17.09h-4.94l-6.56-9.93h-.05l.2,9.93h-4.96l-.33-17.09h4.94l6.54,9.96h.05l-.18-9.96h4.96,0ZM398.69,213.71c1.01,0,1.79-.39,2.32-1.16s.82-1.74.87-2.91.02-2.01-.1-2.51c-.26-1.09-.72-1.92-1.42-2.48-.68-.56-1.46-.84-2.32-.84-.97,0-1.71.36-2.25,1.06-.53.7-.83,1.64-.91,2.81-.08,1.17-.02,2.16.17,2.99.21.87.63,1.59,1.28,2.17.65.57,1.43.86,2.34.86M397.71,199.93c2.6,0,4.68.7,6.22,2.09,1.55,1.39,2.56,3.11,3.04,5.15.18.79.28,1.68.29,2.68.01,1.01-.18,2.05-.57,3.13-.4,1.07-1.02,1.99-1.88,2.74-.85.75-1.72,1.25-2.61,1.51-.89.25-1.86.37-2.93.37-2.44,0-4.49-.62-6.15-1.85-1.66-1.23-2.75-2.97-3.27-5.19-.28-1.17-.37-2.31-.29-3.42s.34-2.15.78-3.13c.45-.98,1.08-1.81,1.91-2.47.83-.66,1.69-1.09,2.6-1.3s1.86-.31,2.86-.31M384.9,200.22l.32,17.09h-5.3l-.14-6.95h-5.72l.17,6.95h-5.35l-.33-17.09h5.31l.12,6.04h5.71l-.07-6.04h5.29-.01ZM363.52,200.22l.2,3.44-7.84,9.98h9.41l.08,3.67h-15.81l-.06-3.67,7.75-9.75h-8.5l-.06-3.67h14.83ZM339.26,210.89l-1.98-6.23h-.05l-1.48,6.23h3.51ZM346.51,217.31h-5.17l-.89-2.79h-5.57l-.67,2.79h-5.69l5.66-17.09h5.63l6.71,17.09h0ZM325.2,200.22l.19,10.31c.04,2.41-.46,4.19-1.53,5.34-1.07,1.16-2.92,1.73-5.55,1.73-1.46,0-2.66-.14-3.6-.43-.94-.28-1.78-.72-2.51-1.29-.73-.57-1.32-1.23-1.76-1.96-.44-.73-.77-1.52-.96-2.36-.25-1.07-.38-2.08-.4-3.06l-.18-8.28h5.3l.2,9.62c.01.45.08.93.19,1.43.32,1.35,1.28,2.03,2.88,2.03.85,0,1.51-.26,1.98-.77.48-.51.69-1.51.66-2.98l-.23-9.33h5.33-.01ZM303.77,200.22l.33,17.09h-5.31l-.14-6.95h-5.72l.17,6.95h-5.35l-.33-17.09h5.3l.12,6.04h5.71l-.07-6.04h5.29Z"/>
      <path id="path30" class="st0" d="M226.39,118.07l.07-3.54,3.53-2.03-3.45-2.15.06-3.53,5.94,4.13,4.33.07-.06,3.2-4.33-.08-6.08,3.92h-.01ZM225.49,129.64l.68-9.69,2.55.18-.23,3.25,7.77.54-.23,3.19-7.77-.54-.22,3.25-2.55-.18h0ZM224.66,135.45l.45-3.17,10.24,1.44-.45,3.17-10.24-1.44ZM229.1,148.99l.45-3.01c.49.04.89,0,1.19-.16.47-.24.78-.66.9-1.25.09-.44.07-.81-.09-1.09-.16-.29-.38-.46-.66-.51-.26-.06-.52,0-.78.19s-.56.68-.93,1.48c-.6,1.3-1.22,2.19-1.85,2.67-.64.48-1.35.63-2.14.47-.52-.11-.98-.36-1.38-.76-.4-.4-.66-.93-.8-1.59-.14-.67-.09-1.53.13-2.57.28-1.3.72-2.23,1.35-2.81.63-.57,1.48-.81,2.55-.72l-.45,2.98c-.47-.02-.84.08-1.1.29-.26.2-.44.53-.53.96-.08.37-.06.66.06.87.11.21.28.35.51.4.16.03.32,0,.48-.13.17-.12.36-.45.6-.97.58-1.3,1.09-2.22,1.52-2.74.43-.53.89-.88,1.4-1.05.5-.17,1.03-.2,1.58-.08.65.14,1.21.44,1.68.92.47.48.78,1.07.93,1.77s.11,1.55-.09,2.53c-.37,1.72-.95,2.84-1.76,3.37-.8.52-1.72.72-2.77.58M224.14,157.07l.37-1.3c.04-.14.07-.42.1-.85.02-.21-.04-.41-.17-.58-.13-.18-.31-.3-.52-.36-.32-.09-.6-.06-.83.09-.23.16-.43.51-.59,1.07l-.39,1.34,2.02.58h0ZM229.17,161.85l-9.94-2.85,1.47-5.12c.27-.95.56-1.65.86-2.11.31-.45.72-.77,1.26-.95.52-.18,1.1-.18,1.73,0,.56.16.99.42,1.33.76.33.35.56.77.7,1.25.08.31.11.71.08,1.19.22-.33.43-.56.6-.69.11-.09.33-.2.66-.34s.58-.22.74-.25l3.31-.66-1,3.47-3.51.77c-.45.1-.77.2-.93.34-.22.17-.36.41-.45.69l-.07.27,4.03,1.16-.88,3.08h0ZM214.99,169.15l9.45,4.21,3.55-7.97-2.15-.95-2.24,5.04-1.86-.83,2.03-4.54-1.93-.86-2.02,4.54-1.51-.67,2.18-4.9-2.02-.9-3.48,7.82h0ZM208.75,180.83l1.62-2.92,7.64,1.57-5.4-5.61,1.57-2.83,7.19,8.37-1.68,3.03-10.94-1.6h0ZM205.53,185.6l1.75-2.68,8.67,5.63-1.75,2.69-8.67-5.64h0ZM197.4,195.06l7.68,6.92,2.01-2.23-4.22-3.8,6.81.92,2.01-2.24-7.69-6.92-2.01,2.25,4.25,3.82-6.85-.93-2,2.22h.01ZM193.19,199.1l2.44-2.06,3.96,4.72c.39.48.69.98.9,1.52.2.54.28,1.09.23,1.67-.05.57-.2,1.07-.43,1.48-.33.58-.82,1.14-1.49,1.7-.39.32-.82.65-1.33.98-.5.32-.97.54-1.41.64s-.91.1-1.42.02c-.5-.08-.93-.24-1.29-.47-.57-.37-1.02-.76-1.35-1.15l-3.96-4.72,2.44-2.05,4.06,4.84c.37.43.77.67,1.21.71.44.04.88-.11,1.31-.47.42-.35.65-.75.69-1.19.04-.44-.13-.88-.49-1.32l-4.06-4.83v-.02ZM177.29,210.64l5.48,8.77,6.94-4.34-1.35-2.16-4.23,2.65-4.13-6.61-2.71,1.7h0ZM174.49,219.25l-2.66-2.84.61,3.84,2.05-1ZM176.07,220.96l-3.27,1.59.3,1.75-2.93,1.43-1.04-11,3.13-1.53,8.03,7.59-3.01,1.46-1.2-1.31v.02ZM159.91,222.9l1.28-.42c.14-.05.4-.18.77-.4.19-.11.32-.27.39-.47.07-.2.08-.42,0-.63-.1-.32-.28-.53-.54-.63-.25-.1-.66-.06-1.21.11l-1.33.43.65,2h0ZM158.75,229.75l-3.19-9.84,5.06-1.65c.94-.3,1.68-.45,2.23-.45s1.05.17,1.49.5c.45.34.77.82.97,1.45.18.55.21,1.05.11,1.52-.1.48-.32.9-.65,1.28-.21.24-.52.48-.94.73.4,0,.71.04.91.11.14.04.35.16.65.35.3.2.51.35.63.47l2.4,2.37-3.44,1.11-2.6-2.47c-.33-.32-.6-.52-.8-.58-.27-.08-.54-.08-.82.02l-.27.09,1.3,3.99-3.05,1h.01ZM149.3,221.57l3.11-.71,1.39,6.01c.14.59.17,1.18.11,1.75s-.25,1.1-.56,1.59c-.3.49-.66.87-1.05,1.13-.55.36-1.26.65-2.1.84-.49.11-1.03.2-1.63.27-.59.07-1.11.04-1.55-.07s-.86-.32-1.27-.62c-.41-.3-.72-.64-.93-1.01-.34-.6-.57-1.15-.68-1.64l-1.39-6.01,3.11-.72,1.42,6.15c.13.55.38.95.75,1.18.38.25.83.3,1.38.17.54-.12.92-.37,1.16-.74.23-.38.29-.84.16-1.4l-1.42-6.16h-.01ZM131.07,224.53l9.66-1.01.27,2.54-3.25.34.81,7.74-3.18.33-.81-7.74-3.24.33-.27-2.54h0ZM122.59,224l3.19.17-.41,7.79,4.98.26-.13,2.54-8.18-.43.54-10.32h.01ZM116.17,223.22l3.17.39-.75,6.12c-.07.61-.24,1.17-.5,1.69-.25.52-.61.95-1.06,1.31-.46.35-.92.58-1.38.69-.64.15-1.39.17-2.26.07-.5-.06-1.04-.16-1.62-.3-.58-.15-1.06-.34-1.43-.6-.37-.26-.7-.6-.98-1.02-.28-.43-.46-.85-.53-1.27-.12-.68-.14-1.27-.08-1.78l.75-6.12,3.17.39-.77,6.27c-.07.56.03,1.02.3,1.37.28.35.68.56,1.23.63.55.06.99-.04,1.34-.31s.56-.69.63-1.27c0,0,.77-6.26.77-6.26ZM102.91,227.16l2.59,1.37c-.34.73-.75,1.32-1.25,1.77-.5.44-1.07.73-1.71.88-.64.15-1.41.13-2.32-.04-1.1-.22-1.98-.55-2.61-1.01-.63-.46-1.13-1.14-1.48-2.05-.35-.91-.41-1.99-.16-3.25.32-1.68,1.03-2.89,2.09-3.61,1.07-.73,2.42-.93,4.06-.62,1.28.25,2.23.7,2.86,1.36.64.66,1.03,1.56,1.17,2.7l-2.89.08c-.04-.33-.09-.58-.17-.75-.13-.27-.31-.5-.54-.68s-.5-.3-.82-.36c-.71-.14-1.31.04-1.8.54-.37.37-.65,1.01-.82,1.92-.22,1.13-.19,1.93.06,2.41.26.48.7.79,1.32.91.6.12,1.09.04,1.46-.24s.69-.72.95-1.34M90.86,217.66l3.1.83-2.68,9.99-3.1-.83,2.68-9.98h0ZM81.33,218.41l.85-1.92,1.28.57c.54.23.86.47.98.73.13.24.11.53-.02.83-.09.21-.23.36-.43.47-.19.1-.4.13-.6.08-.42-.08-.7-.16-.83-.21l-1.23-.55ZM75.9,222.72l2.93,1.31,1.7-3.84.26.11c.27.12.47.3.61.54.1.18.18.51.21.97l.28,3.58,3.3,1.47-.19-3.37c0-.16-.06-.42-.15-.77-.09-.35-.17-.58-.25-.7-.1-.19-.31-.42-.6-.69.48.09.87.12,1.19.08.49-.06.94-.23,1.33-.51s.7-.68.94-1.21c.27-.6.35-1.17.24-1.72-.1-.56-.36-1.01-.77-1.38-.41-.36-1.07-.74-1.97-1.15l-4.87-2.17-4.2,9.44h0ZM69.95,215.25l1.04-1.88,4.31,2.39-2.13,3.85c-1.14.11-2.08.09-2.83-.07-.75-.14-1.56-.46-2.43-.95-1.07-.59-1.84-1.25-2.32-2-.48-.74-.7-1.57-.67-2.51.03-.93.3-1.86.82-2.8.55-.99,1.23-1.73,2.04-2.24.81-.51,1.72-.73,2.71-.67.78.05,1.69.36,2.72.94,1,.55,1.7,1.06,2.09,1.51.39.46.65.97.77,1.53.12.56.09,1.18-.06,1.86l-2.96-1.02c.08-.4.04-.77-.13-1.1-.16-.32-.45-.6-.87-.83-.61-.34-1.22-.39-1.82-.17-.59.22-1.15.8-1.67,1.72-.54.97-.75,1.77-.6,2.4.13.62.53,1.12,1.19,1.48.31.17.64.29.97.36s.74.09,1.22.08l.47-.85-1.86-1.04h0ZM60.37,208.59l-1.77-1.44,3.22-2.17-1.45,3.61ZM59.49,210.75l-.68,1.65,2.6,2.1,3.49-10.48-2.71-2.19-9.53,5.59,2.54,2.05,1.47-1.01,2.83,2.29h-.01ZM47.97,197.27l1.6-1.44,3.3,3.67-3.27,2.95c-1.11-.27-1.99-.6-2.66-.98-.66-.39-1.32-.95-1.99-1.69-.82-.92-1.33-1.8-1.54-2.65-.21-.86-.15-1.72.19-2.59.33-.87.89-1.67,1.69-2.38.84-.76,1.72-1.24,2.66-1.45.93-.21,1.86-.12,2.78.25.72.3,1.47.89,2.27,1.76.77.85,1.26,1.56,1.49,2.12.22.56.3,1.13.23,1.69-.07.57-.29,1.15-.67,1.74l-2.47-1.93c.2-.35.28-.71.23-1.08-.05-.36-.23-.72-.55-1.07-.47-.53-1.03-.78-1.67-.76s-1.35.38-2.14,1.08c-.83.75-1.28,1.44-1.35,2.08-.08.63.14,1.22.64,1.79.24.27.51.49.8.66.3.17.68.33,1.14.47l.72-.65-1.43-1.59h0ZM42.42,178.68l-8.57,5.78,1.68,2.49,4.71-3.18-2.54,6.39,1.68,2.49,8.57-5.78-1.68-2.5-4.74,3.2,2.57-6.43-1.67-2.47h-.01ZM33.55,172.06c-.94.46-1.53.96-1.77,1.51-.24.55-.21,1.12.08,1.72.3.61.73.99,1.3,1.14.57.14,1.37-.04,2.41-.55.88-.42,1.43-.92,1.66-1.46.23-.55.2-1.12-.09-1.73-.28-.58-.71-.94-1.3-1.09-.58-.16-1.34,0-2.29.46M32.16,169.18c1.52-.75,2.91-.9,4.16-.46,1.26.43,2.26,1.4,2.99,2.91.76,1.55.92,2.94.49,4.19-.42,1.24-1.38,2.22-2.87,2.95-1.09.53-2.07.78-2.94.76-.87-.03-1.67-.29-2.4-.79-.73-.5-1.34-1.27-1.84-2.3-.51-1.05-.77-1.99-.77-2.85s.26-1.66.77-2.44c.52-.78,1.31-1.43,2.4-1.96M32.75,155.18l-9.72,3.54,1.09,3,3.93-1.43,1.2,3.28-3.93,1.43,1.1,3.02,9.72-3.54-1.1-3.01-3.4,1.23-1.19-3.29,3.4-1.23-1.09-3h-.01ZM30.06,143.84l2.19,8.78-2,.5-7.28-4.16,1.46,5.83-2.16.54-2.38-9.52,2.08-.52,7.2,4.12-1.25-5.03,2.14-.53h0ZM22.93,138.7l3.52-1.65-3.83-.61.32,2.25h-.01ZM20.81,139.68l-.5-3.61-1.76-.26-.46-3.23,10.79,2.41.49,3.45-9.7,5.29-.47-3.31,1.62-.74h-.01ZM28.19,126.18l.22,3.18-6.15.43c-.61.04-1.19-.02-1.74-.17-.56-.15-1.05-.42-1.49-.79-.43-.39-.75-.79-.94-1.22-.27-.6-.44-1.33-.5-2.2-.03-.51-.04-1.06-.01-1.65.03-.6.13-1.11.32-1.51.18-.42.45-.8.82-1.16.35-.36.73-.61,1.14-.77.65-.24,1.22-.38,1.72-.42l6.15-.43.22,3.18-6.3.44c-.56.04-.99.22-1.28.55-.3.34-.43.78-.39,1.34.04.55.22.97.56,1.26.33.29.79.41,1.36.37l6.3-.44h0ZM28.26,106.55l-.12,3.19-3.61-.12-.12,3.48,3.61.13-.11,3.21-10.34-.37.12-3.21,4.17.15.13-3.49-4.18-.15.11-3.2,10.34.36v.02Z"/>
      <path id="path32" class="st0" d="M125.61,246.73C58.48,246.73,3.73,192,3.73,124.9S58.48,3.07,125.61,3.07s121.87,54.72,121.87,121.83-54.75,121.83-121.87,121.83M125.61,249.39c68.59,0,124.53-55.92,124.53-124.49S194.2.41,125.61.41,1.07,56.34,1.07,124.9s55.95,124.49,124.54,124.49"/>
      <path id="path34" class="st0" d="M125.61,242.97c-65.07,0-118.13-53.04-118.13-118.07S60.55,6.83,125.61,6.83s118.12,53.04,118.12,118.07-53.06,118.07-118.12,118.07M125.61,244.51c65.9,0,119.66-53.73,119.66-119.61S191.52,5.29,125.61,5.29,5.94,59.02,5.94,124.9s53.76,119.61,119.67,119.61"/>
      <path id="path36" class="st0" d="M126.92,211.45c-48.17,0-87.45-38.82-87.45-86.42S78.75,38.63,126.92,38.63s87.45,38.82,87.45,86.41-39.28,86.42-87.45,86.42M126.92,212.57c48.8,0,88.59-39.32,88.59-87.54s-39.8-87.54-88.59-87.54S38.33,76.82,38.33,125.03s39.8,87.54,88.59,87.54"/>
      <path id="path38" class="st1" d="M126.92,211.45c-48.17,0-87.45-38.82-87.45-86.42S78.75,38.63,126.92,38.63s87.45,38.82,87.45,86.41-39.28,86.42-87.45,86.42M126.92,212.57c48.8,0,88.59-39.32,88.59-87.54s-39.8-87.54-88.59-87.54S38.33,76.82,38.33,125.03s39.8,87.54,88.59,87.54"/>
      <path id="path40" class="st0" d="M211.66,59.19c-.21-.11-3.48-1.99-5.16-.45-.72.51-.49,1.13-.44,1.59.02.21-.1.42-.18.53,0,0,.61,0,.94-.27.37-.31.69-.33,1.09-.43.85.15,1.55.38,1.91.45.28.06.4-.06.4-.06l-.93-.6.93-.25.94.2.7.03-.2-.75h0ZM220.47,60.89c.36.36.6,1.09.73,2.18.52.26,1.14.42,2.01.35.38-.42.99-.47,1.49-.48-.34.75-.61,1.45-1.37,2.76-.8-.39-1.71-.75-2.51-1.14-.25.4-.67.89-1.02,1.18-.18.89-.73,1.23-1.3,1.13-.26-.19-.39-.8-.65-.99-.25.28-.45.71-.71.99,2.43.35,3.89,1.53,5.55,1.52-.39-.64-1.19-.98-1.58-1.63-.06-.59,1.44.16,2.87,1.71-.46,1.37-1.15,1.94-2.49,1.33-.45-.61-2.09-1.11-3.57-1.68.53.55.82,1.3.96,1.94.31-.29.59.58.83,1.65-.52.15-1.27.27-1.79.42-.32-.34-.57-.75-.88-1.09-1.67-1.85-3.31-3.63-5.03-5.48-.24,0-.33.09-.56.1.58.31.99.43,2.08,2.17-.41.44-.34.67-1.26,1.25-1.04-.21-2.01-.16-3.05-.38.5.69.83,1.61,1.11,2.69.11.43-.15.91-.19,1.17-.6.25-.78.14-1.24.13-.16-.13-.59.08-.36-.99.09-.38-.29-.76-.34-.84-.26-.41-.4-.51-.66-.91.57.03.9.15.98.44-.21-.45-.43-.9-.64-1.34-1.46.63-2.86,1.5-4.42,1.76-.71.23-1.38.21-2.23-.07-.4-.35-.41-.43-.42-.97,0-.31.27-.51-.1-1.6-.1-1.17.66-2.65,1.42-4.28l.7-.25c.29-.1-1.81,3.52-.91,4.91.43,1.54.84,1.3,2.09.89,1.9-.47,3.19-1.42,3.19-1.42.07-.11-1.17-1.97-2.37-2.4-.44-.16-.8-.45-.81-.72-.03-.66.8-1.94,1.01-1.92l.75.05s-.11.2.09,1.04c.43,1.23,2.68,3.56,2.69,3.57,1.94-.25,2.44.12,2.83-.35-.7-.7-1.39-.73-2.08-1.44-.23-1.18.18-1.83.62-2.29,1.44-.34,2.89,1.16,3.45,2.41,1.43,1.6,2.2,2.51,3.63,4.1,0,0,1.21.94,1.14.3-.11-2.38-5.23-6.76-5.03-6.82.23-.48.15-.62.25-1.41-.24-.41.46-.54.56-.5.13.68.25,1.32.37,2,.82.9,1.38,1.79,2.2,2.69.2-.44.75-.85.95-1.3-.52.11-1.29.19-1.39-.6,0-.18.02-.35.03-.54-.48-.55-.96-1.1-1.44-1.65.72.34,1.48.83,2.2,1.16.37-.07.6-.9.97-.97.33-.21.31.88.19,1.46.22.15.48.29.7.43l.68-.46-.79-.58c-.19-.87-.52-2.05-.13-1.66l1.56,1.07c-.09-.49-.18-.96-.26-1.44l.69-.36h.01ZM219.01,58.51c.06.22.2,1.07-.05,1.2-.1,1.1-2.2,2.6-2.47,2.37-.13-.44-.1-.98-.22-1.42,0,0,.61-.15.97-.45.26-.07.53-.85,1.01-1.38.28-.32.76-.33.76-.33M216.7,57.73c-.96.73-1.81,1.19-2.51,1.23-.33.59-.56,1.67-1.33,1.96-.24.09-.13.49-.23.68.38,0,1.04-.39,1.47-.35.44.05.91.21,1.28.07.04-.4-.25-.93-.21-1.33.64-.5,1.51-.73,1.54-2.25"/>
      <path id="path42" class="st0" d="M32.09,55.35c3.07-.85,3.34.2,4.41,1.09.14.39-.11.77.23,1.1l1.11-1.2-.33-2.8s-.05-1.16.38-1.58c.43-.42,1.75.94,1.75.94,0,0,.86.16.37,1.37-1.27,1.59-.88,2.42-.58,2.8.63-.81,1.68-.54,2.13-.45l.13-.69c-.14-.61.57-.45.76-.66.86.64.72.94.63,1.28l-.2.79.23,1.45c0,1.45.23.73-.23,2.49-.68-.07-.22-1.7-.92-1.99-.73.11-.95.17-1.17-.39-.03-.17.32-.22.24-.32-.61-.74-1.63-.4-1.63-.4l-.13.54.07.48h.99c.45.52.55.22.5.71l2.35,2.39,1.18-2s.7-1.69.49-2.45c.03-.6,2.79-1.5,2.58-.31-1.9,3.43-2.1,6.43-1.53,6.06l2.48-.09s1.33.5.7,1.34c-1.76,1.34-1.61,1.95-1.61,1.95.27.28,3.87,3.76,4.51,4.76,1.13,1.71.79,1.71.31,2.02-1.69-.98-5.75-4.91-5.84-4.82-.57.48-.8,1.13-1.05,1.85-.25.73.52.65-.52,1.54-1.04.91-2.72.1-2.24-.81.48-.92,1.22-5.32,1.13-5.23s-.6-.69-.97-.8c-.68.44-1.97,4.26-1.67,4.57.08,1.1-.58,1.19-.58,1.19,0,0-1.89-.03-2.44-.09,0-.22-.77-.32.45-.99,1.96-1.56,3.42-5.55,3.42-5.55l-.96-.94s-.28.42-.04.79c.24.36.46.56.46.56l-1.47,1.18s-.16-.23-.58-.54c-.35-.04-.81.1-.81.1v-.91s-.8-.89-1.28-1.39c.12-.62,1.01-.57,1.01-.57.16-.31.64-1.1.72-1.03-.33-.69-1.67-1.24-1.55-1.54.12-.61,1.17-1.02,1.17-1.02l-.31-1.49-1.26,1.38-.56,1.63s-1,.45-2.03-.11.38-.37,1.11-1.52c-.34-.57-1.69-2.05-2.74-2.43-1.23-.94-.58-1.07-.79-1.25M43.91,63.14c.38-.57,1.1-1.63,1.03-1.28l-.4,1.96c-.28-.2-.52-.45-.63-.69M45.74,65.08c.06.18.56.55.67.73.1-.18.13-.54,0-.7-.12-.16-.41.03-.68-.03M43.82,70.62s.12-.01.43-.42c.3-.41.6-1.01,1.26-2.31-.33-.29-1.08-1.15-1.04-.83l-.23.72c-.31,1.13-.4,1.96-.41,2.84"/>
      <path id="path44" class="st0" d="M187.98,33.77c.3.53.14,1.52-.09,2.29-.12.4-.67,1.02-.88,1.26-.85.3-1.8-.1-2.69-.22,1.11-1.13,3.06-2.63,3.66-3.33M190.41,27.8c.03.19-1.8,2.7-4.2,5.31-.53.59-2.33,2.23-3.73,3.42-1.07-.19-2.74-.85-3.03-1.07-.19-.37-.61-.8-.8-1.16-.28-.07-.29.07-.51.41.08,1.22.65,2.31,1.2,3.04.14-.04.21-.2.35-.16.39.11,1.06.22,1.46.44-.13-.1-3.68,4.18-6.87,4.24-1.48-.11-2.44-.56-3.06-.96-.08,0-.03.22-.09.25-.31.17,1.54,1.42,2.75,1.91.35.04,1.32.89,3.2-.17.68-.38,1.57-1.2,3.12-2.47,1.17-.92.66.89.59,1.9-.13,1.35-.57,2.8-.7,4.14.19.94.59,1.77,1.72,3.05,2.68-.11,4.05-.65,4.71-1.37-.37-.73-1.64-.37-3.04-1.4-1.27-1.01-1.27-5.5-2.28-6.34-.52-.63.47-1.08.62-1.28,0,0,.77-.96.95-.85.07.04.24-.1.31-.08,1.16-.38,4.41.54,4.48.45.72-.36,1.32-1.65,1.4-2.65-.51-.49-.42-2.03-.68-2.82.3-.19.68-.73,1.3-1.22.28-.22.49-.33.78-.54s.99-.01,1.73-1.13c-.41-.75-.71-1.63-1.13-2.34-.14-.24-.43-.29-.56-.54"/>
      <path id="path46" class="st0" d="M146.13,22.23c.87.81,1.46,1.12,1.88,1.48.12.39.16.72-.37,1.08-.09.06-.65.3-.52.42.49-.03.57-.06.89.14,0,.26,0,1.03-.42,1.22-1.39.56-1.76,1.24-1.68,1.33.82-.41,1.64-.8,2.36-1.29.3-1.69.47-2.52.77-4.21.46-.59,1.11-1.37,1.49-1,.18.23.46.44.58.82.08.61.03,1.37.16,2.55.28.23.09.78.14,1.18-.73.55-1.46.93-2.18,1.48-.17.64-.37,2.06-.39,2.72,0,0,2.97-1.1,4.03.46,1.19,1.59.17,2.49.17,2.49-.71.26-1.6.23-2.33.06.26-.69.67-1.03.55-2.33.23-.29-1.28-.63-2.54.31-.17,1.06-.17,2.42-.23,3.54-.08,1.48.12,1.08.2,1.25.03.23.09.62-.15.67-.19.04-1.44-.23-1.49-.31-.56-.5-.58-.54-.93-1.14,0-.34-.12-.52.19-.85.17-.65.3-1.51.39-2.3-1.34.7-2.33,1.38-2.51,1.86-.37.58-1.18.84-1.12.89-.39.12-1.55-1.39-1.85-1.51-.3-.41-.16-.87-.25-1.38,1.39.57,2.2.92,2.67.75,1.2-.79,2.24-1.27,3.34-1.76.14-.88.35-1.66.5-2.53-.69.29-.9.88-1.54,1.18-.21.1-1.08-.05-1.29-.17-.37-.79-.56-.84-.62-1.73.32-.22.91.01,1.2.01.43-.31.88-.75,1.09-1.09-.26-.39-1.08.63-.75-1.31.56-.21.79-.36.95-.79-.37-.17-.82-.75-.91-1.3-.06-.43.27-.85.51-.89M149.67,11.17s1.39.7.88,1.89c-1.21.57-1.42,4.22-1.53,4.14.07.38-.2,1.52-.13,1.91.66-.36,1.32-.83,1.83-1.51,1.51-.9,3.04-1.79,3.69-2.83.1-.18.4-.84-.34-.81-.55.57-1.44,1.06-1.94,1.65-.58.68-.58,1.02-1.66.84-.48-.42-.57-1.23-.7-1.97.65.11,1.29.27,1.94.37.99-.54,1.76-.78,2.83-1.49.55.15,1.11.3,1.67.44,0,.82-.07,1.45-.25,2.24-1.35.65-2.65,1.26-4.01,1.9-.87.41-1.72,1.13-2.36,1.64,1.51-.16,2.79-.52,4.29-1.02.29-.1.09-.29.4-.45.46.02.6-.02,1.06,0,.86.7.83.91.8,1.54-.3.47-.55.89-.83.87-1.49-.13-2.63-.04-3.16.38-.29-.36.28-.47.08-.67-1.71.05-3.56.56-5.35,1.01-1.66.32-3.2.62-4.06.85-.47.13-.67.36-.89.31-1.66-.63-2.04-1.46-1.76-1.5.51.08,1.28.29,1.79.38,3.54-.25,4.07-.79,5.76-1.19-.1-.25-.2-.49-.31-.75.11-.13.22-.25.33-.38,0-.47.34-1.32.33-1.79-.04,0-.26.02-.39.09-.16.1-.03.7-.19.82-.6.41-1.3.54-1.65-.91l-.21-.86c-.16-.71.31-.75.76-.56l.39.47c-.17-.19,1.43.43,1.45-.32.49-3.57,1.71-5.3,1.46-4.72M150.15,22.32c-.12.08-.19.2-.3.29-.23,1.11-.4,2.22-.49,3.35.15.05.18.07.32.11.28-.07.67-.41.96-.59.09-.54,0-1.07.09-1.6-.04-.6-.05-1.09-.34-1.51-.06,0-.18-.04-.24-.04"/>
      <path id="path48" class="st0" d="M104.05,31.21s-1.81,3.28-1.68,4.3c.72,1.65,1.68-4.3,1.68-4.3M102.52,16.27c.91.19.96,1.12,1.7,1.08.45-.4,1.09-.77,1.25-1.03-.2-.71.07-1.3-.61-2.31.17-1.08.5-2.09,1.22-2.96.45.18,1.18.6,1.98,1.93.08.79-.21,1.09-.29,1.51-.03.19.01.38.05.6.62-.69,1.19-1.01,1.87-1.27,1-.03,1.31.25,1.75.83-1.13,2.02-2.35,3.84-3.28,5.68-.5.22-.99.04-1.48-.19-.29.41-.3.84,0,1.24.18-.2.2-.43.37-.63.24-.17.71.11,1,.31-.69,1.53-1.07,3.05-1.32,4.45l1.31-1.58c.41-.42.72-.53,1.14-.95.86.23,1.31.75,1.73,1.35-.03.78-.93,2.04-1.25,2.8-.25.26-.91.72-1.41,1.26-.27-.42-.54-.61-1.01-.41.21,2.18.1,3.39.66,4.94.23-.53.66-.93.83-1.45-.25-.11-.52-.19-.77-.3.04-.35-.15-.84-.25-1.17,1.76-.27,2.33-.65,2.87-1.62.39.1,1.26.66,1.5,1.09-.5.56-1.19,1.13-2.02,1.32.45.54,1.91.57,2.9.68.28,1.31-1.76,2.07-1.84,1.87-.24-.58-.72-1.18-1.71-1.83-.39.53-.72,1.34-.96,2.37.09,1.46-.35,1.68-.85,1.95-.66-.14-1.07-.55-1.22-1.21-.03-.46-.34-1.08-.13-1.25.15-.12.18-1.02.12-1.55-.19-1.71-.12-3.26,0-4.7.53-.22,1.22-.33,1.82-.19.47-.71,1.15-1.56,1.1-2.73-1.08.54-2.37,2.01-3.42,3.28-.41,1.98-1.01,3.35-1.63,5.73-.37,1.45-.87,2.86-1.28,3.55,0,0-.49.78-1.03.51-1.31-2.19,2.76-9.01,2.76-9.01l.98-4.57c-.73.33-1.13-.06-.99-.85.16-.83.97-5.3.75-5.09-.33.11-.51.5-.84.61.11,1.22.05,1.4-.99,1.63-.09-.25,0-.3-.09-.55-.39-.15-.59-.25-1.09-.14-.17-.38-.24-.73.21-.9,0-.67-.56-1.5-.11-2.15M100.31,19.35c.49,1.7,1.3,1.37,1.2,2.88.57.43,1.44,1.15,1.53,1.31.08.16,1.59-.43.52-2.21-1.07-1.79-1.95-2.14-1.95-2.14l-1.3.17h0ZM108.81,15.9s-1.29.59-1.64.97c.04.8-.13,1.88-.05,1.87,1.07-1.03,1.3-1.92,1.69-2.84"/>
      <path id="path50" class="st0" d="M69.68,36.67c.4.66.81,1.23,1.27,1.84.17-.72.18-1.61-.08-2.29l.76-.44c.09-2.38.92-4.01.45-3.94-1.14,1.53-1.85,3.11-2.39,4.83M61.47,28.04c.06-.63,3.6-.16,4.05.72.55,1.74.08,1.94,3.13,6.28.59-1.23,2.35-3.72,3.29-4.8l.63-.66c.39-.05.82.11,1.3.3l.33.57c-.58,1.54-.88,2.51-1.34,5.1l.53.92c-.26.44-1.63,2.99-1.32,3.52,1.53,2.02,2.9,3.77,3.6,4.84.73.23,2.02,3.19,1.62,4.08.03.69-1.38-.41-3.19-2.02l-.07-.69c-1.66-2.34-3.44-4.05-5.13-6.51-.44.28-.49,1.45-.37,1.93.09.39-.05.77-.43,1.13-.68.35-1.74-.02-2.25-.13-.9-.16-1.53-.6-1.76-1.04-.23-.43,1.51.04,2.22-.57-.05-.08.45-.53,1.14-3.23-4.16-5.91-6.04-8.91-5.99-9.77"/>
      <path id="path52" class="st0" d="M86.94,74.4c.18-2.6,7.36-4.33,10.32,2.49,0,0,.62,11.14.54,17,.12.77,1.84,13.32,26.07,12.51,0,0-.47.41-3.88.91-6.32.94-18.78,5.98-25.36,17.62,0,0-3.79,6.59-6.73,13.87.07,0-8.14,27.43-22.39,40.85,0,0,.42-.49,1.28-2.46,0,0,14.13-28.97,17.78-56.71,0,0,3.79-18.29,2.57-30.32.41-2.59-.37-13.15-.19-15.75"/>
      <path id="path54" class="st0" d="M96.13,46.82c.15-.54,14.91.97,18.45,15.03,0,0,1.97,11.63,1.12,16.06,1.97,8.33,21.75,8.32,23.72,0-.84-4.43,1.13-16.06,1.13-16.06,3.54-14.05,18.3-15.57,18.45-15.03s-15.44,9.22-11.91,29.14c2.37,10.2.77,14.41.77,14.41-4.11,11.34-17.49,11.04-20.3,10.84-2.81.2-16.2.5-20.31-10.84,0,0-1.59-4.21.77-14.41,3.53-19.91-12.06-28.59-11.91-29.14"/>
      <path id="path56" class="st0" d="M166.73,74.4c-.18-2.6-7.36-4.33-10.32,2.49,0,0-.61,11.14-.54,17-.12.77-1.84,13.32-26.06,12.51,0,0,.47.41,3.88.91,6.32.94,18.78,5.98,25.36,17.62,0,0,3.78,6.59,6.73,13.87-.07,0,8.14,27.43,22.39,40.85,0,0-.43-.49-1.28-2.46,0,0-14.13-28.97-17.78-56.71,0,0-3.79-18.29-2.57-30.32-.41-2.59.37-13.15.19-15.75"/>
      <path id="path58" class="st0" d="M126.21,128.63h0c-2.71.22-6.18,1.8-9.5,7.09,0,0-5.6,7.14-7.89,20.44-.86,5.03,12.53,7.44,17.39,7.8v.05h.29c.08,0,.16,0,.25-.02.09,0,.17,0,.25.02h.29v-.05c4.85-.36,18.24-2.77,17.38-7.8-2.29-13.31-7.89-20.44-7.89-20.44-3.32-5.3-6.79-6.88-9.49-7.08h0c-.18-.03-.36-.03-.54-.03s-.37,0-.54.02M79.45,183.63c-4,.25-7.06-.53-9.84-1.38-7.02-2.15,4.49-1.31,9.03-3.43,6.35-2.97,16.69-8.79,21.62-26,4.21-11.89,3.39-36.99,25.96-39.61,23.39,2.63,22.77,27.73,26.99,39.61,4.93,17.21,14.65,23.03,20.99,26,4.54,2.12,16.05,1.29,9.03,3.43-2.79.85-5.84,1.63-9.84,1.38-17.45-1.49-17.82-8.99-29.47-12.43-5.12-1.51-11.18-1.89-17.7-1.49-6.53-.4-12.59-.02-17.7,1.49-11.65,3.44-11.6,10.95-29.06,12.43"/>
      <path id="path60" class="st0" d="M146.99,195.55c0,.52.19.94.56,1.26.38.32.81.49,1.3.49s.89-.17,1.26-.49c.37-.33.56-.75.56-1.26s-.19-.93-.56-1.25c-.37-.33-.81-.49-1.3-.49s-.91.16-1.27.48c-.36.31-.54.75-.54,1.28M147.2,190.55c0,.4.15.72.46.97.3.24.71.37,1.21.37.45,0,.82-.12,1.11-.37s.43-.56.43-.94-.15-.73-.45-.97c-.3-.25-.69-.38-1.16-.38s-.86.13-1.16.37c-.3.25-.45.56-.45.95M145.44,192.83c-.61-.27-1.06-.57-1.34-.91-.39-.45-.58-.97-.58-1.57,0-.96.55-1.76,1.67-2.38.86-.47,2.01-.71,3.43-.71,1.88,0,3.27.3,4.17.89s1.35,1.33,1.35,2.23c0,.52-.18,1.01-.54,1.46-.27.34-.69.67-1.27.98.77.3,1.33.7,1.71,1.2.37.49.56,1.04.56,1.65s-.16,1.13-.48,1.63c-.32.5-.72.89-1.19,1.16-.47.28-1.06.48-1.75.61-.7.13-1.45.19-2.25.19-1.49,0-2.63-.15-3.42-.43-.79-.29-1.39-.72-1.79-1.28-.41-.57-.62-1.2-.62-1.9s.19-1.26.58-1.73.98-.84,1.78-1.1M136.03,191.29c0-.63-.19-1.12-.58-1.48-.38-.35-.85-.54-1.4-.54-.52,0-.95.17-1.29.48-.34.32-.51.81-.51,1.45s.18,1.15.53,1.49c.36.34.8.51,1.33.51s1.01-.17,1.37-.5c.37-.33.55-.81.55-1.42M128.82,196.47l3.89-.4c.1.45.28.77.52.95s.54.28.9.28c.62,0,1.11-.26,1.47-.78.26-.39.45-1.2.58-2.45-.47.4-.95.69-1.44.87s-1.07.28-1.71.28c-1.26,0-2.32-.37-3.19-1.11s-1.3-1.67-1.3-2.81c0-.77.22-1.47.66-2.1.44-.64,1.05-1.11,1.83-1.44.78-.32,1.75-.49,2.92-.49,1.41,0,2.54.2,3.4.6.85.4,1.53,1.03,2.04,1.9s.76,2.02.76,3.44c0,2.09-.53,3.63-1.6,4.6s-2.55,1.46-4.45,1.46c-1.11,0-2.01-.1-2.65-.31-.65-.22-1.19-.53-1.62-.95-.43-.41-.76-.92-.99-1.54M118.1,195.55c0,.52.19.94.56,1.26.39.32.81.49,1.3.49.46,0,.89-.17,1.25-.49.37-.33.56-.75.56-1.26s-.19-.93-.57-1.25c-.37-.33-.8-.49-1.3-.49s-.91.16-1.27.48c-.36.31-.54.75-.54,1.28M118.31,190.55c0,.4.15.72.46.97.3.24.71.37,1.22.37.44,0,.81-.12,1.1-.37s.43-.56.43-.94-.15-.73-.45-.97c-.3-.25-.68-.38-1.16-.38s-.86.13-1.16.37c-.3.25-.45.56-.45.95M116.55,192.83c-.61-.27-1.06-.57-1.34-.91-.38-.45-.58-.97-.58-1.57,0-.96.56-1.76,1.67-2.38.86-.47,2.01-.71,3.43-.71,1.88,0,3.27.3,4.18.89.9.59,1.35,1.33,1.35,2.23,0,.52-.18,1.01-.54,1.46-.27.34-.69.67-1.27.98.77.3,1.33.7,1.71,1.2.38.49.56,1.04.56,1.65s-.16,1.13-.48,1.63-.72.89-1.19,1.16c-.47.28-1.06.48-1.76.61-.7.13-1.45.19-2.25.19-1.49,0-2.63-.15-3.42-.43-.79-.29-1.39-.72-1.79-1.28-.41-.57-.61-1.2-.61-1.9s.19-1.26.57-1.73c.39-.47.98-.84,1.78-1.1M108.63,187.27v11.81h-3.96v-7.74c-.64.4-1.26.72-1.86.97s-1.35.49-2.25.71v-2.64c1.34-.36,2.37-.78,3.11-1.28.73-.49,1.31-1.11,1.73-1.84h3.23,0Z"/>
    </g>
  </g>
</svg>