<?xml version="1.0" encoding="UTF-8"?>
<svg id="svg2" xmlns="http://www.w3.org/2000/svg" version="1.1" xmlns:cc="http://creativecommons.org/ns#" xmlns:dc="http://purl.org/dc/elements/1.1/" xmlns:rdf="http://www.w3.org/1999/02/22-rdf-syntax-ns#" xmlns:svg="http://www.w3.org/2000/svg" viewBox="0 0 590.07 145.33">
  <!-- Generator: Adobe Illustrator 30.0.0, SVG Export Plug-In . SVG Version: 2.1.1 Build 123)  -->
  <defs>
    <style>
      .st0 {
        fill: #00773d;
        fill-rule: evenodd;
      }
    </style>
  </defs>
  <g id="g10">
    <g id="g12">
      <path id="path14" class="st0" d="M449.54,44.98c2.97,1.25,5.52,6.02,7.02,10.02.79,2.1.44,6.46.35,8.2-2.66,4-8,5.4-12.13,7.75,1.07-8.41,4.47-21.08,4.76-25.96M440.56,11.83c.75.69,1.13,17.25-.62,36.09-.34,4.22-2.7,16.99-4.79,26.58-5.15,2.65-14.4,5.24-16.34,5.24-1.98-.92-5.15-1.4-7.14-2.31-1.39.59-.97,1.23-.8,3.4,4.31,4.89,10.22,7.66,14.93,8.99.46-.64.27-1.55.95-1.83,2-.84,5.23-2.5,7.6-2.85-.87,0-2.1,29.59-15.46,40.21-6.65,4.29-12.18,5.49-16.08,5.78-.33.23.59,1.07.43,1.37-.75,1.73,11.1,1.04,17.83-.83,1.61-.96,8.47-.48,13.05-11.05,1.65-3.81,2.8-10.17,5.26-20.56,1.99-7.69,5.66,1.67,8.64,6.17,3.82,6.11,6.61,13.7,10.44,19.81,3.82,3.37,8.21,5.58,17.13,7.38,11.04-9.18,15.11-15.83,15.58-21.08-3.94-1.89-8.17,3.72-17.39,3.88-8.65-.21-23.17-19.27-30.18-19.52-4.25-.98-1.49-6.12-1.48-7.38,0,0,.12-6.59,1.29-6.71.42-.03.69-1.18,1.02-1.35,3.66-5.34,20.45-11.96,20.45-12.55,1.87-3.91.29-11.3-2.64-15.81-3.74-.4-8.34-7.24-11.97-9.73.66-1.8.47-5.32,1.55-9.38.49-1.85,1.03-3,1.56-4.83.52-1.82,4.11-3.23,3.7-10.37-4.13-1.83-8.25-4.62-12.39-6.29-1.37-.56-2.75.15-4.13-.46"/>
      <path id="path16" class="st0" d="M514.19,67.84c-.85.95-15.17,15.03-9.72,25.85,1.61,4.43,5.09,4.16,7.56,4.57,1.12.19,2.03,1.1,2.46,1.63,0,0,.91-3.11-.05-5.23-1.04-2.31-.73-3.99-.63-6.21,2.02-4.15,4.19-7.44,5.06-9.16.67-1.33.28-2.1.28-2.1l-4.42,3.91.05-5.13,2.39-4.51,1.18-3.55-4.15-.07h-.01ZM535.49,24.98c2.37-1.34,6.46-1.55,12.25-.62,2.05-2.28,3.74-5.28,4.65-9.83-1.6-2.57-1-5.78-.33-8.35,3.37,2.84,6.59,5.25,12.22,11.01-3.15,3.52-6.3,7.69-9.44,11.21,1.68,1.89,3.6,4.74,4.6,6.94,4.33,2.21,5.31,5.56,3.99,8.33-1.38,1.07-4.67.86-6.05,1.93,1.07,1.68,2.99,3.36,4.06,5.05,5.27-11.98,13.4-17.77,15.78-26.32-3.82,1.07-6.79,4.7-10.61,5.77-3.12-.52,2.9-7.18,12.91-12.29,6.36,4.3,8.3,8.7,3.27,14.71-3.8,1.46-8.67,9.17-13.75,15.93,3.57-1.92,7.85-2.33,11.36-2.16-1.03-2.02,3.85-2.21,9.67-1.89,0,2.91-.43,6.88-.43,9.78-2.22,1.15-4.65,1.84-6.85,2.94-11.9,5.95-23.38,11.81-35.37,18.01-.3,1.22.03,1.8-.27,3.03,2.43-2.56,3.61-4.49,14.09-7.61,1.68,2.75,2.94,2.72,4.61,8.25-2.59,5.05-3.7,10.09-6.3,15.14,4.23-1.57,9.43-1.97,15.38-1.84,2.41.03,4.45,2.04,5.72,2.63.4,3.46-.4,4.22-1.14,6.54-.88.61-.45,3.17-5.58.43-1.82-.97-4.29.44-4.84.55-2.45.77-3.19,1.32-5.63,2.08,1.01-2.91,2.09-4.39,3.67-4.44-2.59.46-5.19.92-7.8,1.37,1.15,8.41,3.6,16.82,2.72,25.23.2,4-.91,7.37-3.55,11.37-2.36,1.55-2.8,1.48-5.56.79-1.59-.4-2.27-2.14-8.36-1.78-6.16-1.16-12.67-7.17-19.95-13.41l-.3-3.97c-.12-1.63,15.5,14.31,23.96,11.68,8.47,0,7.85-2.44,7.52-9.48.31-10.45-2.75-18.46-2.75-18.46-.46-.51-11.79,3.22-15.72,8.75-1.44,2.03-3.44,3.47-4.85,3.14-3.44-.8-8.79-6.85-8.41-7.94l1.33-3.74s.85.85,5.48,1.04c6.96-.46,22.11-8.68,22.19-8.68,1.53-10.35,4.12-12.37,2.23-15.04-4.58,2.6-5.75,6.05-10.34,8.65-6.42-.53-9.2-3.54-10.91-6.48.3-7.89,10.08-13.15,17.35-14.28,10.24-5.04,16-7.73,26.24-12.78,0,0,6.6-4.89,3.18-5.41-12.39-2.85-42.22,17.17-42.22,16.05-2.11-1.86-2.99-1.67-6.9-3.32-2.46.69-2.12-3.13-1.75-3.56,3.67.31,7.12.61,10.79.92,5.81-2.91,11.19-4.53,17.01-7.43-1.99-1.68-3.34-5.07-5.32-6.76-.18,2.82-.86,6.91-5.05,6.29-.92-.3-1.83-.61-2.75-.91-3.52,1.68-7.03,3.36-10.55,5.05,2.75-3.21,6.35-6.42,9.1-9.64.16-1.99-3.74-4.4-3.59-6.39-.61-1.99,4.97-.34,7.79,1.09,1.07-.92,2.14-2.05,3.21-2.96l-1.37-4.13-4.13,3.21c-4.73-.27-11.28-.23-8.71-1.71l7.73-6.48c-2.59-.24-5.19-.47-7.78-.7l-.86-4.1h.01ZM521.17,29.09c1.21,0,5.79.52,6.13,1.98,5.52,2.05,10.2,15.04,8.66,16.07-2.45,0-5.18-.88-7.63-.88,0,0,.12-3.35-.9-5.65,0-1.44-3.61-3.93-5.66-7.13-1.22-1.92-.6-4.4-.6-4.4M513.94,39.81c2.38,5.99,3.49,11.03,2.75,14.68,2.52,2.53,7.76,5.3,8.11,9.64.11,1.38,2.31,1.37,3.15,2.21.54-1.99-.51-5.92.32-8.11s2.35-4.4,2.16-6.46c-1.99-.76-5.15-.06-7.14-.82-1.65-3.97-1.61-8.79-9.35-11.14"/>
      <path id="path18" class="st0" d="M35.27,0c14.87,8.23,11.98,13.22,12.73,20.62-.94,1.94-3.32,2.49-3.21,5.05l8.71-.46,9.17-11.92s4.13-4.58,7.34-4.58,3.21,10.09,3.21,10.09c0,0,2.66,3.83-3.72,6.64-10.79,1.34-12.4,5.91-12.66,8.51,5.4-.76,8.42,4.2,9.8,6.2l3.08-2.14c1.79-2.89,3.86.4,5.36.31.87,5.65-.77,6.25-2.37,7.25l-3.69,2.28-4.54,6.43c-5.41,5.54-1.86,3.65-10.2,8.62-2.35-2.79,5.53-7.3,3.93-11.06-3.21-2.29-4.25-2.87-2.97-5.81.51-.77,2.04.37,2.1-.36.43-5.07-4.75-7.6-4.75-7.6l-2.48,1.59-1.51,2.12,3.81,3.65c-.25,3.69,1.23,2.93-.79,4.61l.05,17.84,11.93-3.21s8.96-3.83,11.02-7.51c2.35-2.19,16.23,4.65,10.99,8.43-20.03,5.99-32.01,16.71-28.43,17.43l9.78,8.91s3.2,6.85-2.33,7.73c-11.72-1.47-13.41,1.45-13.41,1.45,0,2.05.77,28.76-.55,34.97-2.05,10.77-3.32,9.47-6.34,8.85-2.8-10.04-3.6-40.13-4.31-40.13-3.97-.3-7.23,1.32-10.9,3.16-3.67,1.83-.36,4.42-7.7,3.96-7.34-.46-10.75-9.76-5.5-11.47,5.25-1.7,24.48-15.75,23.79-15.75s.28-4.87-.71-6.72c-4.22-.82-23.41,8.92-23.41,11.21-3.82,4.5-6.68,2.36-6.68,2.36,0,0-7.08-7.15-8.91-9.44.81-.82-1.72-4.09,5.4-2.13,13.3,1.38,33.74-8.42,33.74-8.42l-.17-7.16s-2.62.6-3.08,2.9-.33,3.84-.33,3.84l-10.02-.98s.28-1.46-.18-4.21c-1.19-1.43-3.49-2.64-3.49-2.64l3.38-3.45s.27-6.38.27-10.05c2.8-1.91,5.98,1.57,5.98,1.57,1.79-.6,6.53-1.82,6.58-1.21,1.32-3.86-1.74-10.97-.16-11.63,2.75-1.83,8.25.46,8.25.46l4.39-6.86-9.93.62-8.23,4.13s-5.49-2.02-7.32-7.98,2.81,0,9.93-1.67c.8-3.43,1.17-14.11-1.42-19.5-1.17-8.19,1.79-6.23,1.69-7.71M51.33,73.75c3.58-.73,10.26-2.11,8.68-1.03l-8.82,6.03c-.32-1.83-.3-3.67.15-5M51.03,88.02c-.43.91.11,4.17-.15,5.29,1.03-.33,2.5-1.54,2.65-2.65.14-1.04-1.67-1.38-2.5-2.65M23.09,101.99s.5.41,3.2-.02c2.68-.42,6.03-1.57,13.42-4.09-.14-2.35.15-8.42-.88-7.06l-3.58,1.87c-5.37,3.15-8.84,6.01-12.16,9.3"/>
      <path id="path20" class="st0" d="M331.41,66.76c5.28,3.49,8.64,4.63,11.17,6.17.95,1.93,1.45,3.66-1.03,5.98-.46.43-3.19,2.16-2.35,2.66,2.57-.56,2.94-.82,4.77-.06.18,1.38.9,5.39-1.17,6.77-6.82,4.13-8.2,8.06-7.72,8.42,3.97-2.85,7.95-5.6,11.34-8.82.15-9.17.3-13.65.46-22.82,1.92-3.47,4.69-8.15,7.01-6.54,1.12,1.05,2.78,1.92,3.79,3.84.93,3.16,1.29,7.21,3.02,13.3,1.66.97,1.17,4.03,1.76,6.11-3.36,3.51-6.87,6.15-10.23,9.67-.35,3.51-.15,11.15.29,14.66,0,0,14.71-8.37,21.59-1.03,7.61,7.34,2.98,12.94,2.98,12.94-3.53,1.95-8.23,2.58-12.2,2.33.78-3.86,2.63-5.95.9-12.73.94-1.69-7.25-2.19-13.1,3.83.04,5.73,1.18,12.88,1.8,18.81.86,7.89,1.59,5.56,2.16,6.42.33,1.2.98,3.18-.23,3.66-.95.37-7.76-.02-8.1-.36-3.4-2.15-3.51-2.33-5.85-5.19-.26-1.82-1.08-2.61.27-4.63.35-3.58.26-8.22.08-12.45-6.49,4.8-11.08,9.25-11.58,11.96-1.44,3.39-5.5,5.44-5.13,5.63-1.96.98-9.33-5.96-11.05-6.39-1.93-1.9-1.58-4.42-2.49-7.03,7.81,1.81,12.35,2.95,14.68,1.63,5.65-5.17,10.71-8.57,16.07-12.1,0-4.74.44-9.04.44-13.78-3.39,2.12-3.99,5.42-7.09,7.53-1.03.7-5.73.68-6.91.21-2.67-3.87-3.67-3.94-4.77-8.58,1.53-1.43,4.82-.72,6.35-.97,1.99-1.98,3.97-4.71,4.78-6.7-1.68-1.83-5.12,4.26-5.04-6.23,2.78-1.58,3.86-2.58,4.29-4.93-2.06-.63-4.96-3.27-5.85-6.09-.69-2.19.65-4.7,1.89-5.09M340.58,5.44s7.87,2.53,6.25,9.17c-5.87,4.02-3.86,23.43-4.52,23.09.7,1.96.24,8.18.95,10.15,3.17-2.47,6.26-5.48,8.35-9.51,7.17-6.03,14.44-12.04,16.97-18.08.39-1.07,1.37-4.78-2.5-3.94-2.4,3.48-6.64,6.81-8.77,10.33-2.49,4.11-2.21,5.86-8.02,5.84-2.86-1.8-4.07-5.99-5.37-9.74,3.52,0,7.04.29,10.55.29,4.74-3.67,8.59-5.57,13.63-10.27,3.06.3,6.11.61,9.17.92.72,4.28.85,7.68.55,11.96-6.57,4.58-12.85,8.88-19.43,13.47-4.28,2.9-8.12,7.42-11.08,10.62,7.84-2.1,14.27-5.08,21.72-9.01,1.43-.75.24-1.62,1.74-2.73,2.45-.31,3.13-.61,5.58-.92,5.13,2.93,5.17,4.09,5.5,7.43-1.16,2.77-2.11,5.14-3.62,5.26-7.91.62-13.89,2.07-16.32,4.74-1.81-1.66,1.07-2.72-.15-3.63-8.96,1.75-18.3,6.01-27.32,9.91-8.48,3.09-16.3,5.99-20.64,7.99-2.36,1.09-3.25,2.47-4.43,2.39-9.3-1.88-12.04-5.92-10.57-6.38,2.75,0,6.98.45,9.73.45,18.39-4.32,20.73-7.6,29.28-11.18-.76-1.22-1.53-2.45-2.29-3.67.45-.77.92-1.53,1.38-2.29-.46-2.45.69-7.24.23-9.69-.21,0-1.37.29-1.94.81-.77.68.44,3.72-.34,4.45-2.82,2.66-6.37,3.94-9.43-3.37l-1.85-4.35c-1.42-3.6.96-4.22,3.51-3.61l2.44,2.17c-1.04-.84,7.91.99,7.38-2.92-.47-19.25,4.48-29.41,3.66-26.14M352.64,63.76c-.54.54-.78,1.22-1.32,1.77-.29,6.02-.2,12.03.3,18.05.78.1.97.2,1.76.3,1.42-.64,3.13-2.75,4.55-3.96,0-2.89-.88-5.63-.88-8.52-.71-3.11-1.2-5.7-3.08-7.63-.34.05-.98-.05-1.32,0"/>
      <path id="path22" class="st0" d="M218.13,109.57s-12.09,15.93-12.16,21.37c2.57,9.27,12.16-21.37,12.16-21.37M221.46,29.53c4.68,1.7,4.23,6.63,8.18,7.01,2.67-1.76,6.32-3.2,7.39-4.47-.49-3.93,1.37-6.83-1.46-12.66,1.7-5.58,4.26-10.67,8.71-14.68,2.23,1.29,5.76,4.06,8.97,11.7-.15,4.22-1.96,5.56-2.66,7.75-.32.99-.24,2.02-.22,3.2,3.82-3.13,7.05-4.38,10.88-5.23,5.29.64,6.72,2.36,8.55,5.74-7.51,9.78-15.31,18.48-21.65,27.46-2.82.75-5.29-.56-7.71-2.16-1.83,1.94-2.24,4.23-.93,6.57,1.07-.92,1.41-2.13,2.47-3.05,1.37-.7,3.63,1.15,5.01,2.41-4.78,7.55-7.98,15.3-10.35,22.51l8.09-7.32c2.48-1.92,4.23-2.23,6.71-4.15,4.36,1.89,6.38,4.94,8.09,8.44-.75,4.08-6.45,10.07-8.7,13.82-1.54,1.17-5.34,3.1-8.4,5.59-1.09-2.41-2.38-3.68-5.04-2.94-.58,11.69-2.07,17.94-.3,26.6,1.64-2.62,4.22-4.41,5.47-7.03-1.22-.77-2.59-1.38-3.82-2.15.49-1.83-.13-4.52-.43-6.36,9.49-.05,12.79-1.6,16.39-6.37,1.98.83,6.15,4.45,7.1,6.9-3.06,2.59-7.15,5.04-11.67,5.43,1.95,3.19,9.63,4.47,14.77,5.83.46,7.13-10.87,9.59-11.19,8.47-.8-3.27-2.9-6.78-7.62-10.97-2.46,2.47-4.8,6.52-6.88,11.74-.65,7.78-3.11,8.58-5.96,9.63-3.4-1.27-5.23-3.72-5.5-7.34.2-2.46-.98-5.98.24-6.72.86-.53,1.71-5.23,1.81-8.05.29-9.18,1.87-17.31,3.63-24.83,3.01-.74,6.74-.8,9.74.43,3.05-3.41,7.26-7.38,7.91-13.58-6.08,1.99-14.07,8.8-20.58,14.7-3.64,10.15-7.89,16.91-13.01,29.03-3.01,7.37-6.77,14.41-9.47,17.75,0,0-3.19,3.72-5.81,1.89-5.27-12.55,21.41-45.46,21.41-45.46l8.71-23.39c-4.12,1.18-5.9-1.14-4.57-5.25,1.45-4.25,9.19-27.2,7.91-26.29-1.83.3-3.08,2.22-4.92,2.53-.34,6.57-.83,7.42-6.46,7.83-.3-1.38.27-1.58-.04-2.95-1.93-1.08-2.92-1.73-5.68-1.56-.57-2.12-.75-4.04,1.83-4.59.55-3.51-1.81-8.35,1.03-11.43M207.44,44.07c1.27,9.35,5.82,8.27,4.11,16.15,2.69,2.69,6.74,7.17,7.06,8.07.33.91,8.74-1.03,4.44-11.3-4.29-10.27-8.62-12.78-8.62-12.78,0,0-6.99-.14-6.99-.14ZM254.98,32.39s-7.27,2.13-9.41,3.84c-.42,4.28-2.13,9.83-1.71,9.83,6.44-4.56,8.32-9.11,11.11-13.67"/>
      <path id="path24" class="st0" d="M144.59,65.62c-.33,4.07-.32,7.85-.26,11.92,2.99-2.59,5.78-6.42,6.81-10.19l4.61.43c7.8-10.03,16.47-14.49,14.2-15.68-9.66,3.06-17.67,7.71-25.37,13.51M135.86,2.68c2.23-2.58,16.07,10.49,15.28,15.74-3.01,9.23-5.65,8.63-5.93,36.94,6.39-3.53,21.73-8.82,29.15-10.58l4.79-.89c1.81.99,3.18,3.03,4.7,5.34l-.32,3.53c-7.29,4.85-11.65,8.1-21.68,17.93l-.59,5.65c-2.46,1.12-16.38,7.9-16.68,11.15.34,13.46.84,25.33.55,32.15,2.43,3.29-1.18,20.08-5.7,22.7-2.05,3.09-4.7-6.07-7.53-18.66l1.83-3.21c.12-15.3-2.31-28.25-1.99-44.14-2.79-.17-6.61,4.76-7.61,7.19-.81,1.98-2.6,3.18-5.37,3.6-4.05-.61-7.51-5.48-9.35-7.56-3.42-3.52-4.73-7.37-4.39-9.96.35-2.58,6.41,4.88,11.43,4.42.04-.52,3.58-.87,14.97-10.44.34-38.53,1.53-57.41,4.44-60.92"/>
    </g>
  </g>
</svg>