<?xml version="1.0" encoding="UTF-8"?>
<svg id="svg2" xmlns="http://www.w3.org/2000/svg" version="1.1" xmlns:cc="http://creativecommons.org/ns#" xmlns:dc="http://purl.org/dc/elements/1.1/" xmlns:rdf="http://www.w3.org/1999/02/22-rdf-syntax-ns#" xmlns:svg="http://www.w3.org/2000/svg" viewBox="0 0 249.07 248.98">
  <!-- Generator: Adobe Illustrator 30.0.0, SVG Export Plug-In . SVG Version: 2.1.1 Build 123)  -->
  <defs>
    <style>
      .st0 {
        fill: #fff;
      }

      .st0, .st1 {
        fill-rule: evenodd;
      }

      .st1 {
        fill: #00773d;
      }

      .st2 {
        fill: none;
        stroke: #00773d;
        stroke-miterlimit: 10;
        stroke-width: 1.33px;
      }
    </style>
  </defs>
  <g id="g10">
    <g id="g12">
      <path id="path28" class="st0" d="M124.84,242.57c64.91,0,117.84-52.98,117.84-117.94S189.74,6.67,124.84,6.67,7,59.66,7,124.62s52.94,117.94,117.84,117.94"/>
      <path id="path30" class="st1" d="M225.32,117.66l.07-3.54,3.53-2.03-3.45-2.15.06-3.53,5.94,4.13,4.33.07-.06,3.2-4.33-.08-6.08,3.92h-.01ZM224.42,129.23l.68-9.69,2.55.18-.23,3.25,7.77.54-.23,3.19-7.77-.54-.22,3.25-2.55-.18h0ZM223.59,135.04l.45-3.17,10.24,1.44-.45,3.17-10.24-1.44ZM228.03,148.58l.45-3.01c.49.04.89,0,1.19-.16.47-.24.78-.66.9-1.25.09-.44.07-.81-.09-1.09-.16-.29-.38-.46-.66-.51-.26-.06-.52,0-.78.19s-.56.68-.93,1.48c-.6,1.3-1.22,2.19-1.85,2.67-.64.48-1.35.63-2.14.47-.52-.11-.98-.36-1.38-.76-.4-.4-.66-.93-.8-1.59-.14-.67-.09-1.53.13-2.57.28-1.3.72-2.23,1.35-2.81.63-.57,1.48-.81,2.55-.72l-.45,2.98c-.47-.02-.84.08-1.1.29-.26.2-.44.53-.53.96-.08.37-.06.66.06.87.11.21.28.35.51.4.16.03.32,0,.48-.13.17-.12.36-.45.6-.97.58-1.3,1.09-2.22,1.52-2.74.43-.53.89-.88,1.4-1.05.5-.17,1.03-.2,1.58-.08.65.14,1.21.44,1.68.92.47.48.78,1.07.93,1.77s.11,1.55-.09,2.53c-.37,1.72-.95,2.84-1.76,3.37-.8.52-1.72.72-2.77.58M223.07,156.66l.37-1.3c.04-.14.07-.42.1-.85.02-.21-.04-.41-.17-.58-.13-.18-.31-.3-.52-.36-.32-.09-.6-.06-.83.09-.23.16-.43.51-.59,1.07l-.39,1.34,2.02.58h0ZM228.1,161.44l-9.94-2.85,1.47-5.12c.27-.95.56-1.65.86-2.11.31-.45.72-.77,1.26-.95.52-.18,1.1-.18,1.73,0,.56.16.99.42,1.33.76.33.35.56.77.7,1.25.08.31.11.71.08,1.19.22-.33.43-.56.6-.69.11-.09.33-.2.66-.34s.58-.22.74-.25l3.31-.66-1,3.47-3.51.77c-.45.1-.77.2-.93.34-.22.17-.36.41-.45.69l-.07.27,4.03,1.16-.88,3.08h0ZM213.92,168.74l9.45,4.21,3.55-7.97-2.15-.95-2.24,5.04-1.86-.83,2.03-4.54-1.93-.86-2.02,4.54-1.51-.67,2.18-4.9-2.02-.9-3.48,7.82h0ZM207.68,180.42l1.62-2.92,7.64,1.57-5.4-5.61,1.57-2.83,7.19,8.37-1.68,3.03-10.94-1.6h0ZM204.46,185.19l1.75-2.68,8.67,5.63-1.75,2.69-8.67-5.64h0ZM196.33,194.65l7.68,6.92,2.01-2.23-4.22-3.8,6.81.92,2.01-2.24-7.69-6.92-2.01,2.25,4.25,3.82-6.85-.93-2,2.22h.01ZM192.12,198.69l2.44-2.06,3.96,4.72c.39.48.69.98.9,1.52.2.54.28,1.09.23,1.67-.05.57-.2,1.07-.43,1.48-.33.58-.82,1.14-1.49,1.7-.39.32-.82.65-1.33.98-.5.32-.97.54-1.41.64s-.91.1-1.42.02c-.5-.08-.93-.24-1.29-.47-.57-.37-1.02-.76-1.35-1.15l-3.96-4.72,2.44-2.05,4.06,4.84c.37.43.77.67,1.21.71.44.04.88-.11,1.31-.47.42-.35.65-.75.69-1.19.04-.44-.13-.88-.49-1.32l-4.06-4.83v-.02ZM176.22,210.23l5.48,8.77,6.94-4.34-1.35-2.16-4.23,2.65-4.13-6.61-2.71,1.7h0ZM173.42,218.84l-2.66-2.84.61,3.84,2.05-1ZM175,220.55l-3.27,1.59.3,1.75-2.93,1.43-1.04-11,3.13-1.53,8.03,7.59-3.01,1.46-1.2-1.31v.02ZM158.84,222.49l1.28-.42c.14-.05.4-.18.77-.4.19-.11.32-.27.39-.47.07-.2.08-.42,0-.63-.1-.32-.28-.53-.54-.63-.25-.1-.66-.06-1.21.11l-1.33.43.65,2h0ZM157.68,229.34l-3.19-9.84,5.06-1.65c.94-.3,1.68-.45,2.23-.45s1.05.17,1.49.5c.45.34.77.82.97,1.45.18.55.21,1.05.11,1.52-.1.48-.32.9-.65,1.28-.21.24-.52.48-.94.73.4,0,.71.04.91.11.14.04.35.16.65.35.3.2.51.35.63.47l2.4,2.37-3.44,1.11-2.6-2.47c-.33-.32-.6-.52-.8-.58-.27-.08-.54-.08-.82.02l-.27.09,1.3,3.99-3.05,1h.01ZM148.23,221.16l3.11-.71,1.39,6.01c.14.59.17,1.18.11,1.75s-.25,1.1-.56,1.59c-.3.49-.66.87-1.05,1.13-.55.36-1.26.65-2.1.84-.49.11-1.03.2-1.63.27-.59.07-1.11.04-1.55-.07s-.86-.32-1.27-.62c-.41-.3-.72-.64-.93-1.01-.34-.6-.57-1.15-.68-1.64l-1.39-6.01,3.11-.72,1.42,6.15c.13.55.38.95.75,1.18.38.25.83.3,1.38.17.54-.12.92-.37,1.16-.74.23-.38.29-.84.16-1.4l-1.42-6.16h-.01ZM130,224.12l9.66-1.01.27,2.54-3.25.34.81,7.74-3.18.33-.81-7.74-3.24.33-.27-2.54h0ZM121.52,223.59l3.19.17-.41,7.79,4.98.26-.13,2.54-8.18-.43.54-10.32h.01ZM115.1,222.81l3.17.39-.75,6.12c-.07.61-.24,1.17-.5,1.69-.25.52-.61.95-1.06,1.31-.46.35-.92.58-1.38.69-.64.15-1.39.17-2.26.07-.5-.06-1.04-.16-1.62-.3-.58-.15-1.06-.34-1.43-.6-.37-.26-.7-.6-.98-1.02-.28-.43-.46-.85-.53-1.27-.12-.68-.14-1.27-.08-1.78l.75-6.12,3.17.39-.77,6.27c-.07.56.03,1.02.3,1.37.28.35.68.56,1.23.63.55.06.99-.04,1.34-.31s.56-.69.63-1.27c0,0,.77-6.26.77-6.26ZM101.84,226.75l2.59,1.37c-.34.73-.75,1.32-1.25,1.77-.5.44-1.07.73-1.71.88-.64.15-1.41.13-2.32-.04-1.1-.22-1.98-.55-2.61-1.01-.63-.46-1.13-1.14-1.48-2.05-.35-.91-.41-1.99-.16-3.25.32-1.68,1.03-2.89,2.09-3.61,1.07-.73,2.42-.93,4.06-.62,1.28.25,2.23.7,2.86,1.36.64.66,1.03,1.56,1.17,2.7l-2.89.08c-.04-.33-.09-.58-.17-.75-.13-.27-.31-.5-.54-.68s-.5-.3-.82-.36c-.71-.14-1.31.04-1.8.54-.37.37-.65,1.01-.82,1.92-.22,1.13-.19,1.93.06,2.41.26.48.7.79,1.32.91.6.12,1.09.04,1.46-.24s.69-.72.95-1.34M89.79,217.25l3.1.83-2.68,9.99-3.1-.83,2.68-9.98h0ZM80.26,218l.85-1.92,1.28.57c.54.23.86.47.98.73.13.24.11.53-.02.83-.09.21-.23.36-.43.47-.19.1-.4.13-.6.08-.42-.08-.7-.16-.83-.21l-1.23-.55ZM74.83,222.31l2.93,1.31,1.7-3.84.26.11c.27.12.47.3.61.54.1.18.18.51.21.97l.28,3.58,3.3,1.47-.19-3.37c0-.16-.06-.42-.15-.77-.09-.35-.17-.58-.25-.7-.1-.19-.31-.42-.6-.69.48.09.87.12,1.19.08.49-.06.94-.23,1.33-.51s.7-.68.94-1.21c.27-.6.35-1.17.24-1.72-.1-.56-.36-1.01-.77-1.38-.41-.36-1.07-.74-1.97-1.15l-4.87-2.17-4.2,9.44h0ZM68.88,214.84l1.04-1.88,4.31,2.39-2.13,3.85c-1.14.11-2.08.09-2.83-.07-.75-.14-1.56-.46-2.43-.95-1.07-.59-1.84-1.25-2.32-2-.48-.74-.7-1.57-.67-2.51.03-.93.3-1.86.82-2.8.55-.99,1.23-1.73,2.04-2.24.81-.51,1.72-.73,2.71-.67.78.05,1.69.36,2.72.94,1,.55,1.7,1.06,2.09,1.51.39.46.65.97.77,1.53.12.56.09,1.18-.06,1.86l-2.96-1.02c.08-.4.04-.77-.13-1.1-.16-.32-.45-.6-.87-.83-.61-.34-1.22-.39-1.82-.17-.59.22-1.15.8-1.67,1.72-.54.97-.75,1.77-.6,2.4.13.62.53,1.12,1.19,1.48.31.17.64.29.97.36s.74.09,1.22.08l.47-.85-1.86-1.04h0ZM59.3,208.18l-1.77-1.44,3.22-2.17-1.45,3.61ZM58.42,210.34l-.68,1.65,2.6,2.1,3.49-10.48-2.71-2.19-9.53,5.59,2.54,2.05,1.47-1.01,2.83,2.29h-.01ZM46.9,196.86l1.6-1.44,3.3,3.67-3.27,2.95c-1.11-.27-1.99-.6-2.66-.98-.66-.39-1.32-.95-1.99-1.69-.82-.92-1.33-1.8-1.54-2.65-.21-.86-.15-1.72.19-2.59.33-.87.89-1.67,1.69-2.38.84-.76,1.72-1.24,2.66-1.45.93-.21,1.86-.12,2.78.25.72.3,1.47.89,2.27,1.76.77.85,1.26,1.56,1.49,2.12.22.56.3,1.13.23,1.69-.07.57-.29,1.15-.67,1.74l-2.47-1.93c.2-.35.28-.71.23-1.08-.05-.36-.23-.72-.55-1.07-.47-.53-1.03-.78-1.67-.76s-1.35.38-2.14,1.08c-.83.75-1.28,1.44-1.35,2.08-.08.63.14,1.22.64,1.79.24.27.51.49.8.66.3.17.68.33,1.14.47l.72-.65-1.43-1.59h0ZM41.35,178.27l-8.57,5.78,1.68,2.49,4.71-3.18-2.54,6.39,1.68,2.49,8.57-5.78-1.68-2.5-4.74,3.2,2.57-6.43-1.67-2.47h-.01ZM32.48,171.65c-.94.46-1.53.96-1.77,1.51-.24.55-.21,1.12.08,1.72.3.61.73.99,1.3,1.14.57.14,1.37-.04,2.41-.55.88-.42,1.43-.92,1.66-1.46.23-.55.2-1.12-.09-1.73-.28-.58-.71-.94-1.3-1.09-.58-.16-1.34,0-2.29.46M31.09,168.77c1.52-.75,2.91-.9,4.16-.46,1.26.43,2.26,1.4,2.99,2.91.76,1.55.92,2.94.49,4.19-.42,1.24-1.38,2.22-2.87,2.95-1.09.53-2.07.78-2.94.76-.87-.03-1.67-.29-2.4-.79-.73-.5-1.34-1.27-1.84-2.3-.51-1.05-.77-1.99-.77-2.85s.26-1.66.77-2.44c.52-.78,1.31-1.43,2.4-1.96M31.68,154.77l-9.72,3.54,1.09,3,3.93-1.43,1.2,3.28-3.93,1.43,1.1,3.02,9.72-3.54-1.1-3.01-3.4,1.23-1.19-3.29,3.4-1.23-1.09-3h-.01ZM28.99,143.43l2.19,8.78-2,.5-7.28-4.16,1.46,5.83-2.16.54-2.38-9.52,2.08-.52,7.2,4.12-1.25-5.03,2.14-.53h0ZM21.86,138.29l3.52-1.65-3.83-.61.32,2.25h-.01ZM19.74,139.27l-.5-3.61-1.76-.26-.46-3.23,10.79,2.41.49,3.45-9.7,5.29-.47-3.31,1.62-.74h-.01ZM27.12,125.77l.22,3.18-6.15.43c-.61.04-1.19-.02-1.74-.17-.56-.15-1.05-.42-1.49-.79-.43-.39-.75-.79-.94-1.22-.27-.6-.44-1.33-.5-2.2-.03-.51-.04-1.06-.01-1.65.03-.6.13-1.11.32-1.51.18-.42.45-.8.82-1.16.35-.36.73-.61,1.14-.77.65-.24,1.22-.38,1.72-.42l6.15-.43.22,3.18-6.3.44c-.56.04-.99.22-1.28.55-.3.34-.43.78-.39,1.34.04.55.22.97.56,1.26.33.29.79.41,1.36.37l6.3-.44h0ZM27.19,106.14l-.12,3.19-3.61-.12-.12,3.48,3.61.13-.11,3.21-10.34-.37.12-3.21,4.17.15.13-3.49-4.18-.15.11-3.2,10.34.36v.02Z"/>
      <path id="path32" class="st1" d="M124.54,246.32C57.41,246.32,2.66,191.59,2.66,124.49S57.41,2.66,124.54,2.66s121.87,54.72,121.87,121.83-54.75,121.83-121.87,121.83M124.54,248.98c68.59,0,124.53-55.92,124.53-124.49S193.13,0,124.54,0,0,55.93,0,124.49s55.95,124.49,124.54,124.49"/>
      <path id="path34" class="st1" d="M124.54,242.56c-65.07,0-118.13-53.04-118.13-118.07S59.48,6.42,124.54,6.42s118.12,53.04,118.12,118.07-53.06,118.07-118.12,118.07M124.54,244.1c65.9,0,119.66-53.73,119.66-119.61S190.45,4.88,124.54,4.88,4.87,58.61,4.87,124.49s53.76,119.61,119.67,119.61"/>
      <path id="path36" class="st1" d="M125.85,211.04c-48.17,0-87.45-38.82-87.45-86.42S77.68,38.22,125.85,38.22s87.45,38.82,87.45,86.41-39.28,86.42-87.45,86.42M125.85,212.16c48.8,0,88.59-39.32,88.59-87.54s-39.8-87.54-88.59-87.54S37.26,76.41,37.26,124.62s39.8,87.54,88.59,87.54"/>
      <path id="path38" class="st2" d="M125.85,211.04c-48.17,0-87.45-38.82-87.45-86.42S77.68,38.22,125.85,38.22s87.45,38.82,87.45,86.41-39.28,86.42-87.45,86.42M125.85,212.16c48.8,0,88.59-39.32,88.59-87.54s-39.8-87.54-88.59-87.54S37.26,76.41,37.26,124.62s39.8,87.54,88.59,87.54"/>
      <path id="path40" class="st1" d="M210.59,58.78c-.21-.11-3.48-1.99-5.16-.45-.72.51-.49,1.13-.44,1.59.02.21-.1.42-.18.53,0,0,.61,0,.94-.27.37-.31.69-.33,1.09-.43.85.15,1.55.38,1.91.45.28.06.4-.06.4-.06l-.93-.6.93-.25.94.2.7.03-.2-.75h0ZM219.4,60.48c.36.36.6,1.09.73,2.18.52.26,1.14.42,2.01.35.38-.42.99-.47,1.49-.48-.34.75-.61,1.45-1.37,2.76-.8-.39-1.71-.75-2.51-1.14-.25.4-.67.89-1.02,1.18-.18.89-.73,1.23-1.3,1.13-.26-.19-.39-.8-.65-.99-.25.28-.45.71-.71.99,2.43.35,3.89,1.53,5.55,1.52-.39-.64-1.19-.98-1.58-1.63-.06-.59,1.44.16,2.87,1.71-.46,1.37-1.15,1.94-2.49,1.33-.45-.61-2.09-1.11-3.57-1.68.53.55.82,1.3.96,1.94.31-.29.59.58.83,1.65-.52.15-1.27.27-1.79.42-.32-.34-.57-.75-.88-1.09-1.67-1.85-3.31-3.63-5.03-5.48-.24,0-.33.09-.56.1.58.31.99.43,2.08,2.17-.41.44-.34.67-1.26,1.25-1.04-.21-2.01-.16-3.05-.38.5.69.83,1.61,1.11,2.69.11.43-.15.91-.19,1.17-.6.25-.78.14-1.24.13-.16-.13-.59.08-.36-.99.09-.38-.29-.76-.34-.84-.26-.41-.4-.51-.66-.91.57.03.9.15.98.44-.21-.45-.43-.9-.64-1.34-1.46.63-2.86,1.5-4.42,1.76-.71.23-1.38.21-2.23-.07-.4-.35-.41-.43-.42-.97,0-.31.27-.51-.1-1.6-.1-1.17.66-2.65,1.42-4.28l.7-.25c.29-.1-1.81,3.52-.91,4.91.43,1.54.84,1.3,2.09.89,1.9-.47,3.19-1.42,3.19-1.42.07-.11-1.17-1.97-2.37-2.4-.44-.16-.8-.45-.81-.72-.03-.66.8-1.94,1.01-1.92l.75.05s-.11.2.09,1.04c.43,1.23,2.68,3.56,2.69,3.57,1.94-.25,2.44.12,2.83-.35-.7-.7-1.39-.73-2.08-1.44-.23-1.18.18-1.83.62-2.29,1.44-.34,2.89,1.16,3.45,2.41,1.43,1.6,2.2,2.51,3.63,4.1,0,0,1.21.94,1.14.3-.11-2.38-5.23-6.76-5.03-6.82.23-.48.15-.62.25-1.41-.24-.41.46-.54.56-.5.13.68.25,1.32.37,2,.82.9,1.38,1.79,2.2,2.69.2-.44.75-.85.95-1.3-.52.11-1.29.19-1.39-.6,0-.18.02-.35.03-.54-.48-.55-.96-1.1-1.44-1.65.72.34,1.48.83,2.2,1.16.37-.07.6-.9.97-.97.33-.21.31.88.19,1.46.22.15.48.29.7.43l.68-.46-.79-.58c-.19-.87-.52-2.05-.13-1.66l1.56,1.07c-.09-.49-.18-.96-.26-1.44l.69-.36h.01ZM217.94,58.1c.06.22.2,1.07-.05,1.2-.1,1.1-2.2,2.6-2.47,2.37-.13-.44-.1-.98-.22-1.42,0,0,.61-.15.97-.45.26-.07.53-.85,1.01-1.38.28-.32.76-.33.76-.33M215.63,57.32c-.96.73-1.81,1.19-2.51,1.23-.33.59-.56,1.67-1.33,1.96-.24.09-.13.49-.23.68.38,0,1.04-.39,1.47-.35.44.05.91.21,1.28.07.04-.4-.25-.93-.21-1.33.64-.5,1.51-.73,1.54-2.25"/>
      <path id="path42" class="st1" d="M31.02,54.94c3.07-.85,3.34.2,4.41,1.09.14.39-.11.77.23,1.1l1.11-1.2-.33-2.8s-.05-1.16.38-1.58c.43-.42,1.75.94,1.75.94,0,0,.86.16.37,1.37-1.27,1.59-.88,2.42-.58,2.8.63-.81,1.68-.54,2.13-.45l.13-.69c-.14-.61.57-.45.76-.66.86.64.72.94.63,1.28l-.2.79.23,1.45c0,1.45.23.73-.23,2.49-.68-.07-.22-1.7-.92-1.99-.73.11-.95.17-1.17-.39-.03-.17.32-.22.24-.32-.61-.74-1.63-.4-1.63-.4l-.13.54.07.48h.99c.45.52.55.22.5.71l2.35,2.39,1.18-2s.7-1.69.49-2.45c.03-.6,2.79-1.5,2.58-.31-1.9,3.43-2.1,6.43-1.53,6.06l2.48-.09s1.33.5.7,1.34c-1.76,1.34-1.61,1.95-1.61,1.95.27.28,3.87,3.76,4.51,4.76,1.13,1.71.79,1.71.31,2.02-1.69-.98-5.75-4.91-5.84-4.82-.57.48-.8,1.13-1.05,1.85-.25.73.52.65-.52,1.54-1.04.91-2.72.1-2.24-.81.48-.92,1.22-5.32,1.13-5.23s-.6-.69-.97-.8c-.68.44-1.97,4.26-1.67,4.57.08,1.1-.58,1.19-.58,1.19,0,0-1.89-.03-2.44-.09,0-.22-.77-.32.45-.99,1.96-1.56,3.42-5.55,3.42-5.55l-.96-.94s-.28.42-.04.79c.24.36.46.56.46.56l-1.47,1.18s-.16-.23-.58-.54c-.35-.04-.81.1-.81.1v-.91s-.8-.89-1.28-1.39c.12-.62,1.01-.57,1.01-.57.16-.31.64-1.1.72-1.03-.33-.69-1.67-1.24-1.55-1.54.12-.61,1.17-1.02,1.17-1.02l-.31-1.49-1.26,1.38-.56,1.63s-1,.45-2.03-.11.38-.37,1.11-1.52c-.34-.57-1.69-2.05-2.74-2.43-1.23-.94-.58-1.07-.79-1.25M42.84,62.73c.38-.57,1.1-1.63,1.03-1.28l-.4,1.96c-.28-.2-.52-.45-.63-.69M44.67,64.67c.06.18.56.55.67.73.1-.18.13-.54,0-.7-.12-.16-.41.03-.68-.03M42.75,70.21s.12-.01.43-.42c.3-.41.6-1.01,1.26-2.31-.33-.29-1.08-1.15-1.04-.83l-.23.72c-.31,1.13-.4,1.96-.41,2.84"/>
      <path id="path44" class="st1" d="M186.91,33.36c.3.53.14,1.52-.09,2.29-.12.4-.67,1.02-.88,1.26-.85.3-1.8-.1-2.69-.22,1.11-1.13,3.06-2.63,3.66-3.33M189.34,27.39c.03.19-1.8,2.7-4.2,5.31-.53.59-2.33,2.23-3.73,3.42-1.07-.19-2.74-.85-3.03-1.07-.19-.37-.61-.8-.8-1.16-.28-.07-.29.07-.51.41.08,1.22.65,2.31,1.2,3.04.14-.04.21-.2.35-.16.39.11,1.06.22,1.46.44-.13-.1-3.68,4.18-6.87,4.24-1.48-.11-2.44-.56-3.06-.96-.08,0-.03.22-.09.25-.31.17,1.54,1.42,2.75,1.91.35.04,1.32.89,3.2-.17.68-.38,1.57-1.2,3.12-2.47,1.17-.92.66.89.59,1.9-.13,1.35-.57,2.8-.7,4.14.19.94.59,1.77,1.72,3.05,2.68-.11,4.05-.65,4.71-1.37-.37-.73-1.64-.37-3.04-1.4-1.27-1.01-1.27-5.5-2.28-6.34-.52-.63.47-1.08.62-1.28,0,0,.77-.96.95-.85.07.04.24-.1.31-.08,1.16-.38,4.41.54,4.48.45.72-.36,1.32-1.65,1.4-2.65-.51-.49-.42-2.03-.68-2.82.3-.19.68-.73,1.3-1.22.28-.22.49-.33.78-.54s.99-.01,1.73-1.13c-.41-.75-.71-1.63-1.13-2.34-.14-.24-.43-.29-.56-.54"/>
      <path id="path46" class="st1" d="M145.06,21.82c.87.81,1.46,1.12,1.88,1.48.12.39.16.72-.37,1.08-.09.06-.65.3-.52.42.49-.03.57-.06.89.14,0,.26,0,1.03-.42,1.22-1.39.56-1.76,1.24-1.68,1.33.82-.41,1.64-.8,2.36-1.29.3-1.69.47-2.52.77-4.21.46-.59,1.11-1.37,1.49-1,.18.23.46.44.58.82.08.61.03,1.37.16,2.55.28.23.09.78.14,1.18-.73.55-1.46.93-2.18,1.48-.17.64-.37,2.06-.39,2.72,0,0,2.97-1.1,4.03.46,1.19,1.59.17,2.49.17,2.49-.71.26-1.6.23-2.33.06.26-.69.67-1.03.55-2.33.23-.29-1.28-.63-2.54.31-.17,1.06-.17,2.42-.23,3.54-.08,1.48.12,1.08.2,1.25.03.23.09.62-.15.67-.19.04-1.44-.23-1.49-.31-.56-.5-.58-.54-.93-1.14,0-.34-.12-.52.19-.85.17-.65.3-1.51.39-2.3-1.34.7-2.33,1.38-2.51,1.86-.37.58-1.18.84-1.12.89-.39.12-1.55-1.39-1.85-1.51-.3-.41-.16-.87-.25-1.38,1.39.57,2.2.92,2.67.75,1.2-.79,2.24-1.27,3.34-1.76.14-.88.35-1.66.5-2.53-.69.29-.9.88-1.54,1.18-.21.1-1.08-.05-1.29-.17-.37-.79-.56-.84-.62-1.73.32-.22.91.01,1.2.01.43-.31.88-.75,1.09-1.09-.26-.39-1.08.63-.75-1.31.56-.21.79-.36.95-.79-.37-.17-.82-.75-.91-1.3-.06-.43.27-.85.51-.89M148.6,10.76s1.39.7.88,1.89c-1.21.57-1.42,4.22-1.53,4.14.07.38-.2,1.52-.13,1.91.66-.36,1.32-.83,1.83-1.51,1.51-.9,3.04-1.79,3.69-2.83.1-.18.4-.84-.34-.81-.55.57-1.44,1.06-1.94,1.65-.58.68-.58,1.02-1.66.84-.48-.42-.57-1.23-.7-1.97.65.11,1.29.27,1.94.37.99-.54,1.76-.78,2.83-1.49.55.15,1.11.3,1.67.44,0,.82-.07,1.45-.25,2.24-1.35.65-2.65,1.26-4.01,1.9-.87.41-1.72,1.13-2.36,1.64,1.51-.16,2.79-.52,4.29-1.02.29-.1.09-.29.4-.45.46.02.6-.02,1.06,0,.86.7.83.91.8,1.54-.3.47-.55.89-.83.87-1.49-.13-2.63-.04-3.16.38-.29-.36.28-.47.08-.67-1.71.05-3.56.56-5.35,1.01-1.66.32-3.2.62-4.06.85-.47.13-.67.36-.89.31-1.66-.63-2.04-1.46-1.76-1.5.51.08,1.28.29,1.79.38,3.54-.25,4.07-.79,5.76-1.19-.1-.25-.2-.49-.31-.75.11-.13.22-.25.33-.38,0-.47.34-1.32.33-1.79-.04,0-.26.02-.39.09-.16.1-.03.7-.19.82-.6.41-1.3.54-1.65-.91l-.21-.86c-.16-.71.31-.75.76-.56l.39.47c-.17-.19,1.43.43,1.45-.32.49-3.57,1.71-5.3,1.46-4.72M149.08,21.91c-.12.08-.19.2-.3.29-.23,1.11-.4,2.22-.49,3.35.15.05.18.07.32.11.28-.07.67-.41.96-.59.09-.54,0-1.07.09-1.6-.04-.6-.05-1.09-.34-1.51-.06,0-.18-.04-.24-.04"/>
      <path id="path48" class="st1" d="M102.98,30.8s-1.81,3.28-1.68,4.3c.72,1.65,1.68-4.3,1.68-4.3M101.45,15.86c.91.19.96,1.12,1.7,1.08.45-.4,1.09-.77,1.25-1.03-.2-.71.07-1.3-.61-2.31.17-1.08.5-2.09,1.22-2.96.45.18,1.18.6,1.98,1.93.08.79-.21,1.09-.29,1.51-.03.19.01.38.05.6.62-.69,1.19-1.01,1.87-1.27,1-.03,1.31.25,1.75.83-1.13,2.02-2.35,3.84-3.28,5.68-.5.22-.99.04-1.48-.19-.29.41-.3.84,0,1.24.18-.2.2-.43.37-.63.24-.17.71.11,1,.31-.69,1.53-1.07,3.05-1.32,4.45l1.31-1.58c.41-.42.72-.53,1.14-.95.86.23,1.31.75,1.73,1.35-.03.78-.93,2.04-1.25,2.8-.25.26-.91.72-1.41,1.26-.27-.42-.54-.61-1.01-.41.21,2.18.1,3.39.66,4.94.23-.53.66-.93.83-1.45-.25-.11-.52-.19-.77-.3.04-.35-.15-.84-.25-1.17,1.76-.27,2.33-.65,2.87-1.62.39.1,1.26.66,1.5,1.09-.5.56-1.19,1.13-2.02,1.32.45.54,1.91.57,2.9.68.28,1.31-1.76,2.07-1.84,1.87-.24-.58-.72-1.18-1.71-1.83-.39.53-.72,1.34-.96,2.37.09,1.46-.35,1.68-.85,1.95-.66-.14-1.07-.55-1.22-1.21-.03-.46-.34-1.08-.13-1.25.15-.12.18-1.02.12-1.55-.19-1.71-.12-3.26,0-4.7.53-.22,1.22-.33,1.82-.19.47-.71,1.15-1.56,1.1-2.73-1.08.54-2.37,2.01-3.42,3.28-.41,1.98-1.01,3.35-1.63,5.73-.37,1.45-.87,2.86-1.28,3.55,0,0-.49.78-1.03.51-1.31-2.19,2.76-9.01,2.76-9.01l.98-4.57c-.73.33-1.13-.06-.99-.85.16-.83.97-5.3.75-5.09-.33.11-.51.5-.84.61.11,1.22.05,1.4-.99,1.63-.09-.25,0-.3-.09-.55-.39-.15-.59-.25-1.09-.14-.17-.38-.24-.73.21-.9,0-.67-.56-1.5-.11-2.15M99.24,18.94c.49,1.7,1.3,1.37,1.2,2.88.57.43,1.44,1.15,1.53,1.31.08.16,1.59-.43.52-2.21-1.07-1.79-1.95-2.14-1.95-2.14l-1.3.17h0ZM107.74,15.49s-1.29.59-1.64.97c.04.8-.13,1.88-.05,1.87,1.07-1.03,1.3-1.92,1.69-2.84"/>
      <path id="path50" class="st1" d="M68.61,36.26c.4.66.81,1.23,1.27,1.84.17-.72.18-1.61-.08-2.29l.76-.44c.09-2.38.92-4.01.45-3.94-1.14,1.53-1.85,3.11-2.39,4.83M60.4,27.63c.06-.63,3.6-.16,4.05.72.55,1.74.08,1.94,3.13,6.28.59-1.23,2.35-3.72,3.29-4.8l.63-.66c.39-.05.82.11,1.3.3l.33.57c-.58,1.54-.88,2.51-1.34,5.1l.53.92c-.26.44-1.63,2.99-1.32,3.52,1.53,2.02,2.9,3.77,3.6,4.84.73.23,2.02,3.19,1.62,4.08.03.69-1.38-.41-3.19-2.02l-.07-.69c-1.66-2.34-3.44-4.05-5.13-6.51-.44.28-.49,1.45-.37,1.93.09.39-.05.77-.43,1.13-.68.35-1.74-.02-2.25-.13-.9-.16-1.53-.6-1.76-1.04-.23-.43,1.51.04,2.22-.57-.05-.08.45-.53,1.14-3.23-4.16-5.91-6.04-8.91-5.99-9.77"/>
      <path id="path52" class="st1" d="M85.87,73.99c.18-2.6,7.36-4.33,10.32,2.49,0,0,.62,11.14.54,17,.12.77,1.84,13.32,26.07,12.51,0,0-.47.41-3.88.91-6.32.94-18.78,5.98-25.36,17.62,0,0-3.79,6.59-6.73,13.87.07,0-8.14,27.43-22.39,40.85,0,0,.42-.49,1.28-2.46,0,0,14.13-28.97,17.78-56.71,0,0,3.79-18.29,2.57-30.32.41-2.59-.37-13.15-.19-15.75"/>
      <path id="path54" class="st1" d="M95.06,46.41c.15-.54,14.91.97,18.45,15.03,0,0,1.97,11.63,1.12,16.06,1.97,8.33,21.75,8.32,23.72,0-.84-4.43,1.13-16.06,1.13-16.06,3.54-14.05,18.3-15.57,18.45-15.03s-15.44,9.22-11.91,29.14c2.37,10.2.77,14.41.77,14.41-4.11,11.34-17.49,11.04-20.3,10.84-2.81.2-16.2.5-20.31-10.84,0,0-1.59-4.21.77-14.41,3.53-19.91-12.06-28.59-11.91-29.14"/>
      <path id="path56" class="st1" d="M165.66,73.99c-.18-2.6-7.36-4.33-10.32,2.49,0,0-.61,11.14-.54,17-.12.77-1.84,13.32-26.06,12.51,0,0,.47.41,3.88.91,6.32.94,18.78,5.98,25.36,17.62,0,0,3.78,6.59,6.73,13.87-.07,0,8.14,27.43,22.39,40.85,0,0-.43-.49-1.28-2.46,0,0-14.13-28.97-17.78-56.71,0,0-3.79-18.29-2.57-30.32-.41-2.59.37-13.15.19-15.75"/>
      <path id="path58" class="st1" d="M125.14,128.22h0c-2.71.22-6.18,1.8-9.5,7.09,0,0-5.6,7.14-7.89,20.44-.86,5.03,12.53,7.44,17.39,7.8v.05h.29c.08,0,.16,0,.25-.02.09,0,.17,0,.25.02h.29v-.05c4.85-.36,18.24-2.77,17.38-7.8-2.29-13.31-7.89-20.44-7.89-20.44-3.32-5.3-6.79-6.88-9.49-7.08h0c-.18-.03-.36-.03-.54-.03s-.37,0-.54.02M78.38,183.22c-4,.25-7.06-.53-9.84-1.38-7.02-2.15,4.49-1.31,9.03-3.43,6.35-2.97,16.69-8.79,21.62-26,4.21-11.89,3.39-36.99,25.96-39.61,23.39,2.63,22.77,27.73,26.99,39.61,4.93,17.21,14.65,23.03,20.99,26,4.54,2.12,16.05,1.29,9.03,3.43-2.79.85-5.84,1.63-9.84,1.38-17.45-1.49-17.82-8.99-29.47-12.43-5.12-1.51-11.18-1.89-17.7-1.49-6.53-.4-12.59-.02-17.7,1.49-11.65,3.44-11.6,10.95-29.06,12.43"/>
      <path id="path60" class="st1" d="M145.92,195.14c0,.52.19.94.56,1.26.38.32.81.49,1.3.49s.89-.17,1.26-.49c.37-.33.56-.75.56-1.26s-.19-.93-.56-1.25c-.37-.33-.81-.49-1.3-.49s-.91.16-1.27.48c-.36.31-.54.75-.54,1.28M146.13,190.14c0,.4.15.72.46.97.3.24.71.37,1.21.37.45,0,.82-.12,1.11-.37s.43-.56.43-.94-.15-.73-.45-.97c-.3-.25-.69-.38-1.16-.38s-.86.13-1.16.37c-.3.25-.45.56-.45.95M144.37,192.42c-.61-.27-1.06-.57-1.34-.91-.39-.45-.58-.97-.58-1.57,0-.96.55-1.76,1.67-2.38.86-.47,2.01-.71,3.43-.71,1.88,0,3.27.3,4.17.89s1.35,1.33,1.35,2.23c0,.52-.18,1.01-.54,1.46-.27.34-.69.67-1.27.98.77.3,1.33.7,1.71,1.2.37.49.56,1.04.56,1.65s-.16,1.13-.48,1.63c-.32.5-.72.89-1.19,1.16-.47.28-1.06.48-1.75.61-.7.13-1.45.19-2.25.19-1.49,0-2.63-.15-3.42-.43-.79-.29-1.39-.72-1.79-1.28-.41-.57-.62-1.2-.62-1.9s.19-1.26.58-1.73.98-.84,1.78-1.1M134.96,190.88c0-.63-.19-1.12-.58-1.48-.38-.35-.85-.54-1.4-.54-.52,0-.95.17-1.29.48-.34.32-.51.81-.51,1.45s.18,1.15.53,1.49c.36.34.8.51,1.33.51s1.01-.17,1.37-.5c.37-.33.55-.81.55-1.42M127.75,196.06l3.89-.4c.1.45.28.77.52.95s.54.28.9.28c.62,0,1.11-.26,1.47-.78.26-.39.45-1.2.58-2.45-.47.4-.95.69-1.44.87s-1.07.28-1.71.28c-1.26,0-2.32-.37-3.19-1.11s-1.3-1.67-1.3-2.81c0-.77.22-1.47.66-2.1.44-.64,1.05-1.11,1.83-1.44.78-.32,1.75-.49,2.92-.49,1.41,0,2.54.2,3.4.6.85.4,1.53,1.03,2.04,1.9s.76,2.02.76,3.44c0,2.09-.53,3.63-1.6,4.6s-2.55,1.46-4.45,1.46c-1.11,0-2.01-.1-2.65-.31-.65-.22-1.19-.53-1.62-.95-.43-.41-.76-.92-.99-1.54M117.03,195.14c0,.52.19.94.56,1.26.39.32.81.49,1.3.49.46,0,.89-.17,1.25-.49.37-.33.56-.75.56-1.26s-.19-.93-.57-1.25c-.37-.33-.8-.49-1.3-.49s-.91.16-1.27.48c-.36.31-.54.75-.54,1.28M117.24,190.14c0,.4.15.72.46.97.3.24.71.37,1.22.37.44,0,.81-.12,1.1-.37s.43-.56.43-.94-.15-.73-.45-.97c-.3-.25-.68-.38-1.16-.38s-.86.13-1.16.37c-.3.25-.45.56-.45.95M115.48,192.42c-.61-.27-1.06-.57-1.34-.91-.38-.45-.58-.97-.58-1.57,0-.96.56-1.76,1.67-2.38.86-.47,2.01-.71,3.43-.71,1.88,0,3.27.3,4.18.89.9.59,1.35,1.33,1.35,2.23,0,.52-.18,1.01-.54,1.46-.27.34-.69.67-1.27.98.77.3,1.33.7,1.71,1.2.38.49.56,1.04.56,1.65s-.16,1.13-.48,1.63-.72.89-1.19,1.16c-.47.28-1.06.48-1.76.61-.7.13-1.45.19-2.25.19-1.49,0-2.63-.15-3.42-.43-.79-.29-1.39-.72-1.79-1.28-.41-.57-.61-1.2-.61-1.9s.19-1.26.57-1.73c.39-.47.98-.84,1.78-1.1M107.56,186.86v11.81h-3.96v-7.74c-.64.4-1.26.72-1.86.97s-1.35.49-2.25.71v-2.64c1.34-.36,2.37-.78,3.11-1.28.73-.49,1.31-1.11,1.73-1.84h3.23,0Z"/>
    </g>
  </g>
</svg>